<?xml version="1.0" encoding="UTF-8"?>
<svg xmlns="http://www.w3.org/2000/svg" xmlns:xlink="http://www.w3.org/1999/xlink" version="1.1" id="Capa_1" x="0px" y="0px" viewBox="0 0 512 512" style="enable-background:new 0 0 512 512;" xml:space="preserve" width="512" height="512">
<g>
	<path style="fill:none;stroke:#000000;stroke-width:15;stroke-linecap:round;stroke-linejoin:round;stroke-miterlimit:10;" d="&#10;&#9;&#9;M318.125,457.906l-8.209,8.209c-4.688,4.688-11.047,7.322-17.678,7.322h-72.477c-6.63,0-12.989-2.634-17.678-7.322l-8.209-8.209H15&#10;&#9;&#9;c-4.142,0-7.5,3.358-7.5,7.5V479.5c0,13.807,11.193,25,25,25h447c13.807,0,25-11.193,25-25v-14.094c0-4.142-3.358-7.5-7.5-7.5&#10;&#9;&#9;H318.125z"/>
	<path style="fill:none;stroke:#000000;stroke-width:15;stroke-linecap:round;stroke-linejoin:round;stroke-miterlimit:10;" d="&#10;&#9;&#9;M137.812,457.906H32.5c-13.807,0-25-11.193-25-25V249.938c0-13.807,11.193-25,25-25h105.312c13.807,0,25,11.193,25,25v182.969&#10;&#9;&#9;C162.812,446.713,151.62,457.906,137.812,457.906z"/>
	<path style="fill:none;stroke:#000000;stroke-width:15;stroke-linecap:round;stroke-linejoin:round;stroke-miterlimit:10;" d="&#10;&#9;&#9;M131.75,359.486V261c0-2.761-2.239-5-5-5h-21.685c-2.313,0-4.286,1.596-4.856,3.838c-1.708,6.722-7.8,11.693-15.053,11.693&#10;&#9;&#9;s-13.345-4.972-15.053-11.693c-0.57-2.241-2.543-3.838-4.856-3.838H43.562c-2.761,0-5,2.239-5,5v160.844c0,2.761,2.239,5,5,5&#10;&#9;&#9;h83.188c2.761,0,5-2.239,5-5v-27.358"/>
	<path style="fill:none;stroke:#000000;stroke-width:15;stroke-linecap:round;stroke-linejoin:round;stroke-miterlimit:10;" d="&#10;&#9;&#9;M479.5,349.188H249.938c-13.807,0-25-11.193-25-25V156.75c0-13.807,11.193-25,25-25H479.5c13.807,0,25,11.193,25,25v167.438&#10;&#9;&#9;C504.5,337.995,493.307,349.188,479.5,349.188z"/>
	
		<polyline style="fill:none;stroke:#000000;stroke-width:15;stroke-linecap:round;stroke-linejoin:round;stroke-miterlimit:10;" points="&#10;&#9;&#9;378.759,318.125 256,318.125 256,162.812 442.375,162.812 442.375,318.125 413.759,318.125 &#9;"/>
	
		<line style="fill:none;stroke:#000000;stroke-width:15;stroke-linecap:round;stroke-linejoin:round;stroke-miterlimit:10;" x1="473.438" y1="457.906" x2="473.438" y2="349.188"/>
	<path style="fill:none;stroke:#000000;stroke-width:15;stroke-linecap:round;stroke-linejoin:round;stroke-miterlimit:10;" d="&#10;&#9;&#9;M224.937,162.812H63.562c-13.807,0-25,11.193-25,25v37.125"/>
	
		<polyline style="fill:none;stroke:#000000;stroke-width:15;stroke-linecap:round;stroke-linejoin:round;stroke-miterlimit:10;" points="&#10;&#9;&#9;162.812,426.844 442.375,426.844 442.375,349.188 &#9;"/>
	
		<polyline style="fill:none;stroke:#000000;stroke-width:15;stroke-linecap:round;stroke-linejoin:round;stroke-miterlimit:10;" points="&#10;&#9;&#9;134.244,193.875 69.625,193.875 69.625,224.938 &#9;"/>
	
		<line style="fill:none;stroke:#000000;stroke-width:15;stroke-linecap:round;stroke-linejoin:round;stroke-miterlimit:10;" x1="224.937" y1="193.875" x2="169.244" y2="193.875"/>
	
		<line style="fill:none;stroke:#000000;stroke-width:15;stroke-linecap:round;stroke-linejoin:round;stroke-miterlimit:10;" x1="473.438" y1="224.938" x2="473.438" y2="256"/>
	
		<polyline style="fill:none;stroke:#000000;stroke-width:15;stroke-linecap:round;stroke-linejoin:round;stroke-miterlimit:10;" points="&#10;&#9;&#9;326.89,240.469 341.755,255.334 371.485,225.604 &#9;"/>
	
		<polyline style="fill:none;stroke:#000000;stroke-width:15;stroke-linecap:round;stroke-linejoin:round;stroke-miterlimit:10;" points="&#10;&#9;&#9;69.625,341.422 79.979,351.776 100.688,331.068 &#9;"/>
	<path style="fill:none;stroke:#000000;stroke-width:15;stroke-linecap:round;stroke-linejoin:round;stroke-miterlimit:10;" d="&#10;&#9;&#9;M328.496,131.75c0.797-1.858,1.526-3.753,2.181-5.681c0.472-1.389,1.482-2.53,2.795-3.186l12.607-6.304&#10;&#9;&#9;c1.906-0.953,3.109-2.9,3.109-5.031v-21.72c0-2.131-1.204-4.078-3.109-5.031l-12.607-6.303c-1.312-0.656-2.323-1.797-2.795-3.186&#10;&#9;&#9;c-1.106-3.256-2.42-6.417-3.924-9.466c-0.65-1.318-0.744-2.84-0.28-4.234l4.459-13.377c0.674-2.021,0.148-4.25-1.359-5.756&#10;&#9;&#9;l-15.359-15.359c-1.506-1.507-3.735-2.033-5.756-1.359l-13.377,4.459c-1.394,0.465-2.916,0.371-4.234-0.28&#10;&#9;&#9;c-3.049-1.505-6.21-2.818-9.466-3.924c-1.389-0.472-2.53-1.482-3.186-2.794l-6.303-12.607c-0.953-1.906-2.901-3.109-5.031-3.109&#10;&#9;&#9;h-21.72c-2.131,0-4.078,1.204-5.031,3.109l-6.303,12.607c-0.656,1.312-1.797,2.323-3.186,2.794&#10;&#9;&#9;c-3.256,1.106-6.417,2.42-9.466,3.924c-1.318,0.65-2.84,0.744-4.234,0.28l-13.377-4.459c-2.021-0.674-4.25-0.148-5.756,1.359&#10;&#9;&#9;l-15.359,15.359c-1.507,1.506-2.033,3.735-1.359,5.756l4.459,13.377c0.465,1.394,0.371,2.916-0.28,4.234&#10;&#9;&#9;c-1.505,3.049-2.818,6.21-3.924,9.466c-0.472,1.389-1.482,2.53-2.795,3.186l-12.607,6.303c-1.906,0.953-3.109,2.901-3.109,5.031&#10;&#9;&#9;v21.72c0,2.131,1.204,4.078,3.109,5.031l12.607,6.304c1.312,0.656,2.323,1.797,2.795,3.186c1.106,3.256,2.42,6.417,3.924,9.466&#10;&#9;&#9;c0.65,1.318,0.744,2.84,0.28,4.234l-4.459,13.377c-0.674,2.021-0.148,4.25,1.359,5.756l3.911,3.911"/>
	<path style="fill:none;stroke:#000000;stroke-width:15;stroke-linecap:round;stroke-linejoin:round;stroke-miterlimit:10;" d="&#10;&#9;&#9;M261.768,131.75l31.063-31.063c6.065-6.065,6.065-15.899,0-21.965c-6.065-6.065-15.899-6.065-21.964,0l-21.965,21.965&#10;&#9;&#9;L237.92,89.705c-6.065-6.065-15.899-6.065-21.964,0c-6.065,6.065-6.065,15.899,0,21.965l21.93,21.93&#10;&#9;&#9;c0.011,0.011,0.022,0.023,0.034,0.034c0.265,0.265,0.538,0.518,0.816,0.76"/>
</g>















</svg>
