<svg xmlns="http://www.w3.org/2000/svg" version="1.1" xmlns:xlink="http://www.w3.org/1999/xlink" width="512" height="512" x="0" y="0" viewBox="0 0 24 24" style="enable-background:new 0 0 512 512" xml:space="preserve"><g><path d="M20 1a3.003 3.003 0 0 1 3 3v16a3.003 3.003 0 0 1-3 3H4a3.003 3.003 0 0 1-3-3V4a3.003 3.003 0 0 1 3-3h16m0-1H4a4 4 0 0 0-4 4v16a4 4 0 0 0 4 4h16a4 4 0 0 0 4-4V4a4 4 0 0 0-4-4Z" data-name="Layer 2" fill="#000000" opacity="1" data-original="#000000"></path><g data-name="Layer 3"><path d="M15 19.5H7A1.502 1.502 0 0 1 5.5 18V6A1.502 1.502 0 0 1 7 4.5h10A1.502 1.502 0 0 1 18.5 6v10a.5.5 0 0 1-.146.353l-3 3A.5.5 0 0 1 15 19.5Zm-8-14a.501.501 0 0 0-.5.5v12a.501.501 0 0 0 .5.5h7.793l2.707-2.707V6a.501.501 0 0 0-.5-.5Z" fill="#000000" opacity="1" data-original="#000000"></path><path d="M15 19.5a.5.5 0 0 1-.5-.5v-2a1.502 1.502 0 0 1 1.5-1.5h2a.5.5 0 0 1 .353.854l-3 3A.5.5 0 0 1 15 19.5Zm1-3a.501.501 0 0 0-.5.5v.793l1.293-1.293ZM14 14.5a.5.5 0 0 1-.353-.854L15.293 12l-1.647-1.647a.5.5 0 0 1 .707-.706l2 2a.5.5 0 0 1 0 .706l-2 2A.498.498 0 0 1 14 14.5ZM10 14.5a.498.498 0 0 1-.353-.146l-2-2a.5.5 0 0 1 0-.707l2-2a.5.5 0 0 1 .706.706L8.707 12l1.647 1.647A.5.5 0 0 1 10 14.5ZM10.75 16.5a.493.493 0 0 1-.153-.024.499.499 0 0 1-.323-.63l2.25-7a.5.5 0 0 1 .952.307l-2.25 7a.498.498 0 0 1-.476.347Z" fill="#000000" opacity="1" data-original="#000000"></path></g></g></svg>