<?xml version="1.0" encoding="UTF-8"?>
<svg xmlns="http://www.w3.org/2000/svg" viewBox="0 0 128 128" width="512" height="512"><g id="Outline"><g id="Outline-2" data-name="Outline"><path d="M15.5,11A4.5,4.5,0,1,0,20,15.5,4.505,4.505,0,0,0,15.5,11Zm0,6A1.5,1.5,0,1,1,17,15.5,1.5,1.5,0,0,1,15.5,17Z"/><path d="M47.5,11A4.5,4.5,0,1,0,52,15.5,4.505,4.505,0,0,0,47.5,11Zm0,6A1.5,1.5,0,1,1,49,15.5,1.5,1.5,0,0,1,47.5,17Z"/><path d="M31.5,11A4.5,4.5,0,1,0,36,15.5,4.505,4.505,0,0,0,31.5,11Zm0,6A1.5,1.5,0,1,1,33,15.5,1.5,1.5,0,0,1,31.5,17Z"/><path d="M111.5,11h-16a4.5,4.5,0,0,0,0,9h16a4.5,4.5,0,0,0,0-9Zm0,6h-16a1.5,1.5,0,0,1,0-3h16a1.5,1.5,0,0,1,0,3Z"/><path d="M114.5,0H13.5A13.515,13.515,0,0,0,0,13.5v87A13.515,13.515,0,0,0,13.5,114H29v6.5a7.508,7.508,0,0,0,7.5,7.5h55a7.508,7.508,0,0,0,7.5-7.5V114h15.5A13.515,13.515,0,0,0,128,100.5v-87A13.515,13.515,0,0,0,114.5,0ZM96,120.5a4.505,4.505,0,0,1-4.5,4.5h-55a4.505,4.505,0,0,1-4.5-4.5V61H44.5A4.505,4.505,0,0,0,49,56.5V43H91.5A4.505,4.505,0,0,1,96,47.5ZM32.3,58a4.482,4.482,0,0,1,1.043-1.636L45.61,44.293a4.488,4.488,0,0,1,.39-.316V56.5A1.5,1.5,0,0,1,44.5,58ZM125,100.5A10.512,10.512,0,0,1,114.5,111H99V47.5A7.508,7.508,0,0,0,91.5,40H48.767a7.459,7.459,0,0,0-5.261,2.154L31.238,54.227A7.624,7.624,0,0,0,29,59.571V111H13.5A10.512,10.512,0,0,1,3,100.5V30H125ZM125,27H3V13.5A10.512,10.512,0,0,1,13.5,3h101A10.512,10.512,0,0,1,125,13.5Z"/><path d="M74.039,78.5h3a2.5,2.5,0,0,1,2.5,2.5,1.5,1.5,0,0,0,3,0,5.507,5.507,0,0,0-5.5-5.5h-3a6.5,6.5,0,1,0,0,13h2a3.5,3.5,0,0,1,0,7h-3a2.5,2.5,0,0,1-2.5-2.5,1.5,1.5,0,0,0-3,0,5.507,5.507,0,0,0,5.5,5.5h3a6.5,6.5,0,0,0,0-13h-2a3.5,3.5,0,1,1,0-7Z"/><path d="M58.961,75.5a1.5,1.5,0,0,0-1.5,1.5V91a4.5,4.5,0,0,1-9,0,1.5,1.5,0,0,0-3,0,7.5,7.5,0,0,0,15,0V77A1.5,1.5,0,0,0,58.961,75.5Z"/></g></g></svg>
