<svg xmlns="http://www.w3.org/2000/svg" version="1.1" xmlns:xlink="http://www.w3.org/1999/xlink" width="512" height="512" x="0" y="0" viewBox="0 0 66 66" style="enable-background:new 0 0 512 512" xml:space="preserve" class=""><g><path d="M43.06 27.2h2.88c.4 0 .72-.32.72-.72s-.32-.72-.72-.72h-2.88c-.4 0-.72.32-.72.72s.32.72.72.72zM25.75 27.2h2.88c.4 0 .72-.32.72-.72s-.32-.72-.72-.72h-2.88c-.4 0-.72.32-.72.72s.33.72.72.72zM19.98 25.76c-.4 0-.72.32-.72.72s.32.72.72.72h2.88c.4 0 .72-.32.72-.72s-.32-.72-.72-.72zM31.52 27.2h2.88c.4 0 .72-.32.72-.72s-.32-.72-.72-.72h-2.88c-.4 0-.72.32-.72.72s.33.72.72.72zM37.29 27.2h2.88c.4 0 .72-.32.72-.72s-.32-.72-.72-.72h-2.88c-.4 0-.72.32-.72.72s.33.72.72.72zM17.1 25.76h-2.88c-.4 0-.72.32-.72.72s.32.72.72.72h2.88c.4 0 .72-.32.72-.72s-.32-.72-.72-.72zM18.3 31.61c0 .4.32.72.72.72h3.85c.4 0 .72-.32.72-.72s-.32-.72-.72-.72h-3.85c-.4 0-.72.32-.72.72zM25.99 31.61c0 .4.32.72.72.72h3.85c.4 0 .72-.32.72-.72s-.32-.72-.72-.72h-3.85c-.39 0-.72.32-.72.72zM15.9 31.61c0-.4-.32-.72-.72-.72h-3.67c-.4 0-.72.32-.72.72s.32.72.72.72h3.67c.39 0 .72-.32.72-.72zM42.1 32.33h3.85c.4 0 .72-.32.72-.72s-.32-.72-.72-.72H42.1c-.4 0-.72.32-.72.72s.32.72.72.72zM38.25 30.89H34.4c-.4 0-.72.32-.72.72s.32.72.72.72h3.85c.4 0 .72-.32.72-.72a.71.71 0 0 0-.72-.72zM26.71 35.91H21.9c-.4 0-.72.32-.72.72s.32.72.72.72h4.81c.4 0 .72-.32.72-.72s-.32-.72-.72-.72zM40.42 36.63c0 .4.32.72.72.72h4.81c.4 0 .72-.32.72-.72s-.32-.72-.72-.72h-4.81c-.4 0-.72.32-.72.72zM36.33 35.91h-4.81c-.4 0-.72.32-.72.72s.32.72.72.72h4.81c.4 0 .72-.32.72-.72s-.32-.72-.72-.72zM17.1 35.91h-4.81c-.4 0-.72.32-.72.72s.32.72.72.72h4.81c.4 0 .72-.32.72-.72s-.32-.72-.72-.72z" fill="#000000" opacity="1" data-original="#000000" class=""></path><path d="M58.84 40.39h-4.72V13.12c0-.19-.08-.37-.21-.51L43.01 1.73a.702.702 0 0 0-.52-.23H7.82c-2.47 0-4.47 2.01-4.47 4.47v54.05c0 2.47 2.01 4.47 4.47 4.47h41.82c2.37 0 4.3-1.86 4.44-4.19h4.75c2.1 0 3.82-1.71 3.82-3.82v-12.3c0-2.09-1.71-3.79-3.81-3.79zM43.21 3.97l8.44 8.43h-5.41c-1.67 0-3.03-1.36-3.03-3.03zm6.43 59.09H7.82c-1.67 0-3.03-1.36-3.03-3.03V5.97c0-1.67 1.36-3.03 3.03-3.03h33.95v6.43c0 2.47 2.01 4.47 4.47 4.47h6.43v26.55H21.79c-2.1 0-3.82 1.71-3.82 3.81v12.3c0 2.1 1.71 3.82 3.82 3.82h30.85a3.02 3.02 0 0 1-3 2.74zm11.57-6.57c0 1.31-1.07 2.38-2.38 2.38H21.79c-1.31 0-2.38-1.07-2.38-2.38v-12.3c0-1.3 1.07-2.36 2.38-2.36h37.05c1.31 0 2.38 1.06 2.38 2.36v12.3z" fill="#000000" opacity="1" data-original="#000000" class=""></path><path d="M32.63 53.48c-.4.36-.88.53-1.44.53-.76 0-1.38-.28-1.85-.84s-.71-1.5-.71-2.82c0-1.24.24-2.14.72-2.7s1.11-.83 1.88-.83c.56 0 1.04.16 1.43.47s.65.74.77 1.28l2.08-.5c-.24-.83-.59-1.47-1.07-1.92-.8-.75-1.83-1.13-3.11-1.13-1.46 0-2.64.48-3.54 1.44s-1.34 2.31-1.34 4.04c0 1.64.45 2.93 1.34 3.88s2.03 1.42 3.42 1.42c1.12 0 2.04-.28 2.77-.83s1.25-1.4 1.56-2.54l-2.04-.65c-.18.78-.47 1.34-.87 1.7zM43.72 49.87c-.49-.26-1.25-.51-2.27-.75s-1.67-.47-1.93-.7c-.21-.18-.31-.39-.31-.63 0-.27.11-.49.33-.65.35-.25.83-.38 1.44-.38.59 0 1.04.12 1.33.35.3.23.49.62.58 1.16l2.11-.09c-.03-.96-.38-1.72-1.04-2.3-.66-.57-1.65-.86-2.96-.86-.8 0-1.49.12-2.05.36-.57.24-1 .59-1.3 1.06-.3.46-.45.96-.45 1.49 0 .83.32 1.53.96 2.1.46.41 1.25.75 2.38 1.03.88.22 1.44.37 1.69.46.36.13.61.28.76.45.14.17.22.38.22.63 0 .38-.17.72-.52 1.01-.34.29-.85.43-1.53.43-.64 0-1.15-.16-1.53-.48s-.63-.83-.75-1.52l-2.05.2c.14 1.17.56 2.06 1.27 2.66.71.61 1.72.91 3.04.91.91 0 1.66-.13 2.27-.38s1.08-.64 1.41-1.16.5-1.08.5-1.68c0-.66-.14-1.21-.42-1.66-.3-.44-.69-.8-1.18-1.06zM53.44 49.87c-.49-.26-1.25-.51-2.27-.75s-1.67-.47-1.93-.7c-.21-.18-.31-.39-.31-.63 0-.27.11-.49.33-.65.35-.25.83-.38 1.44-.38.59 0 1.04.12 1.33.35.3.23.49.62.58 1.16l2.11-.09c-.03-.96-.38-1.72-1.04-2.3-.66-.57-1.65-.86-2.96-.86-.8 0-1.49.12-2.05.36-.57.24-1 .59-1.3 1.06-.3.46-.45.96-.45 1.49 0 .83.32 1.53.96 2.1.46.41 1.25.75 2.38 1.03.88.22 1.44.37 1.69.46.36.13.61.28.76.45.14.17.22.38.22.63 0 .38-.17.72-.52 1.01-.34.29-.85.43-1.53.43-.64 0-1.15-.16-1.53-.48s-.63-.83-.75-1.52l-2.05.2c.14 1.17.56 2.06 1.27 2.66.71.61 1.72.91 3.04.91.91 0 1.66-.13 2.27-.38s1.08-.64 1.41-1.16.5-1.08.5-1.68c0-.66-.14-1.21-.42-1.66-.3-.44-.69-.8-1.18-1.06zM11.32 18.35c0 .72.04 1.25.12 1.59s.23.62.46.85.51.39.83.49c.33.1.8.15 1.42.15h.36v-1.65c-.49 0-.82-.03-.96-.09-.15-.06-.26-.15-.33-.27s-.11-.33-.11-.63c0-.21-.02-.7-.05-1.46-.03-.5-.09-.9-.18-1.2s-.22-.55-.4-.76c-.17-.21-.39-.39-.66-.55.31-.2.54-.39.68-.57s.27-.42.37-.7.16-.65.18-1.1c.04-.81.06-1.35.06-1.64 0-.28.03-.48.1-.6s.18-.2.32-.26.47-.09.98-.09V8.22h-.36c-.6 0-1.04.04-1.32.12-.41.12-.73.29-.94.51-.22.21-.36.49-.45.84s-.12.97-.12 1.86c0 .54-.02.93-.05 1.15-.05.29-.13.54-.25.73s-.27.33-.44.42c-.17.08-.42.13-.76.15v1.65c.42.02.73.11.94.27.2.16.36.42.46.79.07.25.1.8.1 1.64zM18.8 8.22h-1.45l-2.49 10.42h1.42zM20.78 21.3c.42-.12.73-.29.95-.51.22-.21.36-.5.44-.85s.12-.97.12-1.86c0-.54.02-.92.05-1.14.05-.29.14-.54.26-.73s.27-.33.44-.42c.17-.08.42-.13.76-.15V14c-.42-.02-.74-.11-.94-.27-.21-.16-.36-.42-.46-.79-.07-.26-.1-.8-.1-1.64 0-.72-.04-1.25-.12-1.59s-.23-.62-.46-.85c-.22-.23-.5-.4-.83-.49-.33-.1-.8-.14-1.42-.14h-.37v1.64c.52 0 .85.03 1 .09s.25.15.31.26.09.34.09.69c.02 1.09.06 1.79.11 2.12.08.47.22.85.44 1.15.16.21.4.43.74.65-.26.15-.48.33-.64.52-.17.2-.3.44-.4.73s-.16.67-.19 1.14c-.04.79-.06 1.32-.06 1.6s-.04.48-.11.59c-.07.12-.18.21-.33.27s-.47.09-.96.09v1.65h.36c.6 0 1.04-.04 1.32-.12z" fill="#000000" opacity="1" data-original="#000000" class=""></path></g></svg>