<svg xmlns="http://www.w3.org/2000/svg" version="1.1" xmlns:xlink="http://www.w3.org/1999/xlink" width="512" height="512" x="0" y="0" viewBox="0 0 75 75" style="enable-background:new 0 0 512 512" xml:space="preserve" class=""><circle r="37.5" cx="37.5" cy="37.5" fill="#ffffff" shape="circle"></circle><g transform="matrix(0.7,0,0,0.7,11.249999427795412,11.24991617202759)"><path d="M45.923 50.714c.098.273-.8-.871 15.561 17.958 1.47 1.619 3.945 2.19 5.513.768 1.562-1.419 1.248-3.93-.233-5.56l-2.64-2.909a.75.75 0 1 0-1.11 1.008l2.64 2.908c.894.985 1.268 2.594.334 3.442-.916.832-2.478.343-3.383-.653l-11.847-13.61c1.458-.398 2.654-1.502 3.146-2.728l5.177 5.99a.75.75 0 1 0 1.134-.98c-1.904-2.2-8.518-9.876-8.707-10.053a18.14 18.14 0 0 0 3.473-6.2h3.184v8.4c0 .413.335.75.75.75h4.944a2.24 2.24 0 0 0 2.035 1.314 2.242 2.242 0 0 0 2.24-2.24 2.243 2.243 0 0 0-2.24-2.24c-1.036 0-1.9.71-2.156 1.665h-4.073v-8.399a.75.75 0 0 0-.75-.75h-3.52a18.41 18.41 0 0 0-.116-8.817h9.943a.75.75 0 0 0 0-1.5H54.815a18.16 18.16 0 0 0-4.273-6.794c-.203-.204-.423-.381-.634-.574h5.108a.75.75 0 0 0 .75-.75v-8.399h3.085a2.78 2.78 0 0 0 2.684 2.084c1.535 0 2.784-1.249 2.784-2.784s-1.25-2.784-2.784-2.784c-1.256 0-2.307.84-2.653 1.984h-3.866a.75.75 0 0 0-.75.75v8.4h-6.227a18.225 18.225 0 0 0-8.92-3.206v-6.003a2.78 2.78 0 0 0 2.033-2.669c0-1.535-1.249-2.784-2.784-2.784S35.584 6 35.584 7.533a2.78 2.78 0 0 0 2.034 2.669v5.931a18.266 18.266 0 0 0-10.474 3.293c-.238-.026-4.282-.011-6.41-.016v-8.399a.75.75 0 0 0-.75-.75h-3.866a2.779 2.779 0 0 0-2.653-1.984c-1.535 0-2.784 1.249-2.784 2.784s1.249 2.784 2.784 2.784a2.782 2.782 0 0 0 2.684-2.084h3.085v8.4c0 .414.336.75.75.75h5.313c-.21.192-.43.369-.634.573a18.164 18.164 0 0 0-4.429 7.24H9.778a.75.75 0 0 0 0 1.5h10.04a18.411 18.411 0 0 0-.007 8.371h-3.726a.75.75 0 0 0-.75.75v8.4h-4.073a2.237 2.237 0 0 0-2.156-1.666 2.243 2.243 0 0 0-2.24 2.24 2.242 2.242 0 0 0 2.24 2.24 2.24 2.24 0 0 0 2.034-1.315h4.945a.75.75 0 0 0 .75-.75v-8.399h3.39a18.163 18.163 0 0 0 4.438 7.269c3.21 3.209 7.324 4.962 11.53 5.284v4.326c0 .254.129.491.342.63l4.01 2.597a.75.75 0 0 0 .177.081c-.466 1.82.927 3.47 2.688 3.47a2.787 2.787 0 0 0 2.784-2.784c0-2.475-3.016-3.722-4.762-1.956-.21-.182-1.123-.738-3.74-2.446V52.71a18.319 18.319 0 0 0 8.231-1.997zm19.97-3.135a.74.74 0 0 1 0 1.48.74.74 0 0 1 0-1.48zM61.536 9.777c.708 0 1.284.576 1.284 1.284s-.576 1.284-1.284 1.284a1.285 1.285 0 0 1 0-2.568zm-48.07 2.568c-.708 0-1.284-.576-1.284-1.284s.576-1.284 1.284-1.284 1.284.576 1.284 1.284-.576 1.284-1.284 1.284zM9.106 49.059a.74.74 0 0 1 0-1.48.74.74 0 0 1 0 1.48zM43.41 59.684c.708 0 1.284.576 1.284 1.284s-.576 1.284-1.284 1.284a1.285 1.285 0 0 1 0-2.568zm9.28-9.75c-.013.054-.033.105-.033.163 0 1.372-1.825 2.802-3.109 2.58l-2.345-2.694a18.238 18.238 0 0 0 3.298-2.582zm-15.606-42.4c0-.709.576-1.285 1.284-1.285s1.284.576 1.284 1.284-.576 1.285-1.284 1.285-1.284-.577-1.284-1.285zm-11.36 38.769c-6.55-6.55-6.55-17.208 0-23.759 6.547-6.548 17.208-6.55 23.758 0 6.55 6.551 6.55 17.21 0 23.759-6.549 6.55-17.208 6.552-23.758 0z" fill="#38aaeb" opacity="1" data-original="#000000"></path><path d="M32.167 38.213c.418 0 .694-.107 1.002-.841l.51-1.225h4.131l.519 1.225c.272.673.583.841 1.065.841.73 0 .999-.582.688-1.237l-3.23-7.154c-.22-.507-.557-.83-1.103-.83-.55 0-.884.33-1.114.83l-3.207 7.154c-.329.697.058 1.237.74 1.237zm3.557-7h.025l1.409 3.391h-2.832zM42.324 38.213c.654 0 .964-.396.964-1.02v-7.18c0-.622-.323-1.02-.964-1.02-.639 0-.977.377-.977 1.02v7.18c0 .633.329 1.02.977 1.02zM59.999 17.682v6.321h-4.2a.75.75 0 0 0 0 1.5h4.95a.75.75 0 0 0 .75-.75v-6.321h4.756a.75.75 0 0 0 0-1.5H60.75a.75.75 0 0 0-.75.75zM68.618 40.172a.75.75 0 0 0-.75-.75h-4.176v-6.306a.75.75 0 0 0-.75-.75h-5.069a.75.75 0 0 0 0 1.5h4.32v6.306c0 .414.335.75.75.75h4.925a.75.75 0 0 0 .75-.75zM14.251 16.932H7.698a.75.75 0 0 0 0 1.5H13.5v6.321c0 .414.336.75.75.75h4.95a.75.75 0 0 0 0-1.5h-4.2v-6.321a.75.75 0 0 0-.75-.75zM6.382 41.104c0 .414.336.75.75.75h4.926a.75.75 0 0 0 .75-.75v-6.306h4.318a.75.75 0 0 0 0-1.5h-5.068a.75.75 0 0 0-.75.75v6.306H7.132a.75.75 0 0 0-.75.75z" fill="#38aaeb" opacity="1" data-original="#000000"></path><path d="M46.728 24.548h-18.25a.75.75 0 0 0-.75.75V43.55c0 .414.335.75.75.75h14.31a.75.75 0 0 0 .53-.22l3.94-3.94a.75.75 0 0 0 .22-.53V25.3a.75.75 0 0 0-.75-.75zm-.75 14.751-3.5 3.5h-13.25V26.05h16.75v13.25zM25.943 56.324v-5.306a.75.75 0 0 0-1.5 0v4.742l-5.12 1.484c-1.637-2.124-4.98-.94-4.98 1.69a2.787 2.787 0 0 0 2.783 2.784c1.566 0 2.939-1.33 2.755-3.073l5.521-1.6a.751.751 0 0 0 .541-.721zm-8.817 3.894c-.708 0-1.284-.576-1.284-1.284s.576-1.284 1.284-1.284 1.285.576 1.285 1.284-.577 1.284-1.285 1.284zM30.318 54.648v6.827a.75.75 0 0 0 1.5 0v-6.827a.75.75 0 0 0-1.5 0zM32.242 15.708a.75.75 0 0 0 .75-.75v-3.212a.751.751 0 0 0-.541-.72l-5.992-1.738a.754.754 0 0 0-.93.512.75.75 0 0 0 .512.93l5.45 1.58v2.648c0 .414.337.75.75.75zM48.154 9.168l-4.009 2.598a.752.752 0 0 0-.342.63v2.773a.75.75 0 0 0 1.5 0v-2.365l3.667-2.376a.751.751 0 0 0-.816-1.26z" fill="#38aaeb" opacity="1" data-original="#000000"></path></g></svg>