<svg id="Layer_1" viewBox="0 0 512 512" xmlns="http://www.w3.org/2000/svg" data-name="Layer 1"><path d="m164.088 394.937c0-60.327-65.288-68.237-65.288-172.437a146.661 146.661 0 0 1 146.654-146.661 8 8 0 0 1 0 16 130.657 130.657 0 0 0 -130.654 130.661c0 95.128 60.093 103.094 64.98 164.44h139.039a8 8 0 0 1 8 8v33.781a34.267 34.267 0 0 1 -34.188 34.189h-9.168v12.381a18.746 18.746 0 0 1 -18.712 18.709h-38.595a18.746 18.746 0 0 1 -18.711-18.712v-12.381h-9.168a34.268 34.268 0 0 1 -34.189-34.189zm96.027-125.337a61.668 61.668 0 0 1 34.219-38.108c-18.984-21.115-3.94-54.917 24.485-54.917s43.47 33.8 24.485 54.917a61.675 61.675 0 0 1 34.22 38.108 71.906 71.906 0 1 0 -117.409 0zm104.069 14.258a45.55 45.55 0 0 0 -90.729 0 71.929 71.929 0 0 0 90.729 0zm-33.4-86.329c-10.628-10.629-28.884-3.069-28.884 11.961s18.255 22.59 28.881 11.963a16.92 16.92 0 0 0 0-23.927zm130.087 63.605a8 8 0 0 0 7.875-6.62 153.209 153.209 0 0 0 .056-52.562 8 8 0 0 0 -7.933-6.952h-19.882a126.61 126.61 0 0 0 -12.424-29.918l14.07-14.071-.021-.022a7.971 7.971 0 0 0 .9-10.2 151.562 151.562 0 0 0 -37-37.141 8 8 0 0 0 -10.641.6l-14.056 14.062a128.424 128.424 0 0 0 -29.93-12.387v-19.908a8 8 0 0 0 -6.62-7.875 153.031 153.031 0 0 0 -52.56-.055 8 8 0 0 0 -6.945 7.93v19.885a126.714 126.714 0 0 0 -29.918 12.425l-14.071-14.071-.022.022a7.97 7.97 0 0 0 -10.2-.9 151.554 151.554 0 0 0 -37.141 36.993 8 8 0 0 0 .6 10.642l14.059 14.059a128.442 128.442 0 0 0 -12.388 29.93h-19.908a8 8 0 0 0 -7.875 6.62q-1.155 6.584-1.725 13.159c-1.254 14.459-.5 25.169 1.669 39.4a8 8 0 0 0 7.931 6.943h19.908a128.374 128.374 0 0 0 12.387 29.929l-14.059 14.059.009.01a7.985 7.985 0 0 0 -.884 10.24 151.468 151.468 0 0 0 36.8 36.952 8 8 0 0 0 10.833-.442l14.071-14.071a126.675 126.675 0 0 0 29.918 12.426v19.881a8 8 0 0 0 6.62 7.875 153.065 153.065 0 0 0 52.56.056 8 8 0 0 0 6.945-7.931v-19.899a128.338 128.338 0 0 0 29.93-12.387l14.058 14.059.009-.009a7.988 7.988 0 0 0 10.241.884 151.468 151.468 0 0 0 36.952-36.8 8 8 0 0 0 -.442-10.834l-14.07-14.07a126.652 126.652 0 0 0 12.424-29.918zm-26.156-16h19.273a138.227 138.227 0 0 0 0-34.131h-19.275v-.006a8 8 0 0 1 -7.813-6.307 110 110 0 0 0 -5.9-18.882 111.707 111.707 0 0 0 -8.974-17.211 8 8 0 0 1 .791-10.393l13.654-13.654a139.494 139.494 0 0 0 -24.147-24.124l-13.624 13.623-.01-.01a7.986 7.986 0 0 1 -9.958 1.072 110.083 110.083 0 0 0 -36.2-15.031 8 8 0 0 1 -6.645-7.885v-19.295a138.17 138.17 0 0 0 -34.13 0v19.27h-.007a8 8 0 0 1 -6.306 7.813 109.961 109.961 0 0 0 -18.878 5.9 111.85 111.85 0 0 0 -17.216 8.975 8 8 0 0 1 -10.392-.792l-13.658-13.654a139.553 139.553 0 0 0 -24.123 24.146l13.626 13.626-.011.01a7.986 7.986 0 0 1 1.073 9.958 110.093 110.093 0 0 0 -15.031 36.2 8 8 0 0 1 -7.883 6.648h-19.3a137.936 137.936 0 0 0 0 34.131h19.3v.006a8 8 0 0 1 7.812 6.306 110.081 110.081 0 0 0 14.837 36.111 8 8 0 0 1 -.791 10.393l-13.626 13.625a139.518 139.518 0 0 0 24.117 24.146l13.654-13.653.01.01a7.989 7.989 0 0 1 9.961-1.075c10.409 6.688 24.139 12.723 36.185 15.073a8 8 0 0 1 6.645 7.885v19.273a138.121 138.121 0 0 0 34.13 0v-19.3h.006a8 8 0 0 1 6.306-7.813 110.089 110.089 0 0 0 36.112-14.833 8 8 0 0 1 10.392.792l13.625 13.625a139.494 139.494 0 0 0 24.147-24.124l-13.654-13.648.01-.011a7.986 7.986 0 0 1 -1.073-9.958c6.691-10.413 12.722-24.134 15.072-36.185a8 8 0 0 1 7.885-6.645zm-115.896-104.968a87.9 87.9 0 1 0 87.9 87.9 87.9 87.9 0 0 0 -87.9-87.9zm-202.337 231.249 17.281-17.281a8 8 0 1 0 -11.313-11.312l-17.281 17.278a8 8 0 1 0 11.313 11.313zm-67.526-134.815a8 8 0 0 1 0-16h24.444a8 8 0 1 1 0 16zm47.581-143.074 17.28 17.28a8 8 0 1 0 11.313-11.312l-17.281-17.281a8 8 0 0 0 -11.312 11.313zm134.812-67.526a8 8 0 0 1 16 0v24.439a8 8 0 1 1 -16 0zm36.114 436.907h-44.018v12.381a2.741 2.741 0 0 0 2.711 2.712h38.595a2.742 2.742 0 0 0 2.712-2.712zm43.356-34.189v-25.781h-130.731v25.781a18.263 18.263 0 0 0 18.189 18.189h94.354a18.263 18.263 0 0 0 18.188-18.189z" fill-rule="evenodd"/></svg>