<svg xmlns="http://www.w3.org/2000/svg" version="1.1" xmlns:xlink="http://www.w3.org/1999/xlink" width="512" height="512" x="0" y="0" viewBox="0 0 64 64" style="enable-background:new 0 0 512 512" xml:space="preserve" class=""><g><path d="M22.85 26.89h-11.9a1 1 0 0 0 0 2h11.9a1 1 0 0 0 0-2zM22.85 32.84h-11.9a1 1 0 0 0 0 2h11.9a1 1 0 0 0 0-2zM22.85 38.79h-11.9a1 1 0 0 0 0 2h11.9a1 1 0 0 0 0-2zM22.85 44.74h-11.9a1 1 0 0 0 0 2h11.9a1 1 0 0 0 0-2zM34.748 28.884h3.915a1 1 0 0 0 0-2h-3.915a1 1 0 0 0 0 2zM34.748 34.847h2.005a1 1 0 0 0 0-2h-2.005a1 1 0 0 0 0 2zM34.748 40.794h1.697a1 1 0 1 0 0-2h-1.697a1 1 0 0 0 0 2zM46.652 44.74H34.75a1 1 0 1 0 0 2h11.9a1 1 0 0 0 0-2z" fill="#28aa4a" opacity="1" data-original="#000000"></path><path d="M57.815 7.709a4.14 4.14 0 0 0-6.083 1.406l-4.23 8.3a27.916 27.916 0 0 0-18.712 1.847 27.738 27.738 0 0 0-24.238.212 1 1 0 0 0-.552.894V56.07a1.008 1.008 0 0 0 1.447.895 25.732 25.732 0 0 1 22.906 0 1.005 1.005 0 0 0 .895.007 25.735 25.735 0 0 1 22.911 0 1.008 1.008 0 0 0 1.447-.895V24.793l5.96-11.683a4.027 4.027 0 0 0-1.75-5.401zm-4.3 2.31a2.02 2.02 0 0 1 2.705-.877l.69.35a2.024 2.024 0 0 1 .87 2.716l-.95 1.865-4.271-2.177zm-1.803 14.087c-.038.105-5.541 10.852-5.587 10.953l-1.239-.628 9.79-19.21 1.245.634zm-9.034 14.182-1.5 1.215c.056-1.1.187-3.47.248-4.585l1.664.846 1.651.836zm8.972-24.61 1.243.634-9.79 19.214-1.246-.633zM6 54.505V20.995a25.746 25.746 0 0 1 21.8 0v33.51a27.779 27.779 0 0 0-21.8 0zm23.8.008V20.987a25.871 25.871 0 0 1 16.76-1.726l-6.94 13.617a1.547 1.547 0 0 0-.107.398c-.113 2.086-.346 6.283-.46 8.368a1.007 1.007 0 0 0 1.628.835l3.264-2.643 3.24-2.65a.19.19 0 0 1 .067-.06 1.382 1.382 0 0 0 .2-.27l4.154-8.135v25.79a27.781 27.781 0 0 0-21.805 0z" fill="#28aa4a" opacity="1" data-original="#000000"></path></g></svg>