<svg xmlns="http://www.w3.org/2000/svg" version="1.1" xmlns:xlink="http://www.w3.org/1999/xlink" width="512" height="512" x="0" y="0" viewBox="0 0 64 64" style="enable-background:new 0 0 512 512" xml:space="preserve" class=""><g><path d="M54.75 30.25H52.5V28a.75.75 0 0 0-.75-.75h-16a3.735 3.735 0 0 0-3 1.523 3.735 3.735 0 0 0-3-1.523h-16A.75.75 0 0 0 13 28v2.25h-2.25A.75.75 0 0 0 10 31v32a.75.75 0 0 0 .75.75h44a.75.75 0 0 0 .75-.75V31a.75.75 0 0 0-.75-.75ZM33.5 31a2.253 2.253 0 0 1 2.25-2.25H51v26.5H35.75a3.715 3.715 0 0 0-2.25.769Zm0 28a2.253 2.253 0 0 1 2.25-2.25H51v2.5H33.5Zm-19-30.25h15.25A2.253 2.253 0 0 1 32 31v25.019a3.715 3.715 0 0 0-2.25-.769H14.5Zm0 28h15.25A2.253 2.253 0 0 1 32 59v.25H14.5Zm39.5 5.5H11.5v-30.5H13V60a.75.75 0 0 0 .75.75h38a.75.75 0 0 0 .75-.75V31.75H54Z" fill="#28aa4a" opacity="1" data-original="#000000"></path><path d="M36.75 32.75h11a.75.75 0 0 0 0-1.5h-11a.75.75 0 0 0 0 1.5ZM36.75 36.75h11a.75.75 0 0 0 0-1.5h-11a.75.75 0 0 0 0 1.5ZM36.75 40.75h11a.75.75 0 0 0 0-1.5h-11a.75.75 0 0 0 0 1.5ZM36.75 44.75h11a.75.75 0 0 0 0-1.5h-11a.75.75 0 0 0 0 1.5ZM36.75 48.75h11a.75.75 0 0 0 0-1.5h-11a.75.75 0 0 0 0 1.5ZM28.75 31.25h-11a.75.75 0 0 0 0 1.5h11a.75.75 0 0 0 0-1.5ZM28.75 35.25h-11a.75.75 0 0 0 0 1.5h11a.75.75 0 0 0 0-1.5ZM28.75 39.25h-11a.75.75 0 0 0 0 1.5h11a.75.75 0 0 0 0-1.5ZM28.75 43.25h-11a.75.75 0 0 0 0 1.5h11a.75.75 0 0 0 0-1.5ZM28.75 47.25h-11a.75.75 0 0 0 0 1.5h11a.75.75 0 0 0 0-1.5ZM36.75 52.75h11a.75.75 0 0 0 0-1.5h-11a.75.75 0 0 0 0 1.5ZM28.75 51.25h-11a.75.75 0 0 0 0 1.5h11a.75.75 0 0 0 0-1.5ZM10 22.75h1.5V25a.75.75 0 0 0 1.5 0v-7.5a2.248 2.248 0 0 0-1.5-2.112V7.982l7.5 2.046V21a.751.751 0 0 0 .529.717l13 4a.757.757 0 0 0 .442 0l13-4A.751.751 0 0 0 46.5 21V10.027l8.447-2.3a.751.751 0 0 0 0-1.448l-22-6a.752.752 0 0 0-.394 0l-22 6A.749.749 0 0 0 10 7v8.388A2.248 2.248 0 0 0 8.5 17.5V25a.75.75 0 0 0 1.5 0Zm22 1.234-11.5-3.538v-1.593L32 22.392Zm0-3.162-11.5-3.538v-6.847L32 13.573Zm13-.376-11.5 3.538v-1.592L45 18.853Zm0-3.162-11.5 3.538v-7.249L45 10.436ZM32.75 8.75A.75.75 0 0 0 33.5 8V6A.75.75 0 0 0 32 6v.25H16.351l16.4-4.473L51.9 7l-19.15 5.223L16.351 7.75H32V8a.75.75 0 0 0 .75.75ZM10 17.5a.75.75 0 0 1 1.5 0v3.75H10Z" fill="#28aa4a" opacity="1" data-original="#000000"></path></g></svg>