<svg xmlns="http://www.w3.org/2000/svg" version="1.1" xmlns:xlink="http://www.w3.org/1999/xlink" width="512" height="512" x="0" y="0" viewBox="0 0 70 70" style="enable-background:new 0 0 512 512" xml:space="preserve" class=""><g><path d="M69 66.73H1a1 1 0 0 1 0-2h68a1 1 0 0 1 0 2zM16.33 60.66H8a1 1 0 0 1-1-1V48.25a1 1 0 0 1 1-1h8.37a1 1 0 0 1 1 1v11.41a1 1 0 0 1-1.04 1zm-7.33-2h6.37v-9.41H9zM31.57 60.66h-8.38a1 1 0 0 1-1-1V33.08a1 1 0 0 1 1-1h8.38a1 1 0 0 1 1 1v26.58a1 1 0 0 1-1 1zm-7.38-2h6.38V34.08h-6.38zM46.81 60.66h-8.38a1 1 0 0 1-1-1V37.54a1 1 0 0 1 1-1h8.38a1 1 0 0 1 1 1v22.12a1 1 0 0 1-1 1zm-7.38-2h6.38V38.54h-6.38zM62 60.66h-8.33a1 1 0 0 1-1-1V19.81a1 1 0 0 1 1-1H62a1 1 0 0 1 1 1v39.85a1 1 0 0 1-1 1zm-7.37-2H61V20.81h-6.33zM12.14 34.08A4.85 4.85 0 1 1 17 29.23a4.85 4.85 0 0 1-4.86 4.85zm0-7.69A2.85 2.85 0 1 0 15 29.23a2.85 2.85 0 0 0-2.86-2.84zM27.38 17.79A4.85 4.85 0 1 1 32.23 13a4.84 4.84 0 0 1-4.85 4.79zm0-7.69a2.85 2.85 0 1 0 2.85 2.9 2.85 2.85 0 0 0-2.85-2.9zM42.62 30.73a4.85 4.85 0 1 1 4.84-4.84 4.85 4.85 0 0 1-4.84 4.84zm0-7.69a2.85 2.85 0 1 0 2.84 2.85A2.86 2.86 0 0 0 42.62 23zM57.86 13a4.84 4.84 0 1 1 4.84-4.89A4.85 4.85 0 0 1 57.86 13zm0-7.68a2.84 2.84 0 1 0 2.84 2.79 2.85 2.85 0 0 0-2.84-2.84z" fill="#ffffff" opacity="1" data-original="#000000" class=""></path><path d="M45.12 24a1 1 0 0 1-.76-1.65L54.6 10.38a1 1 0 1 1 1.51 1.3L45.88 23.62a1 1 0 0 1-.76.38zM39.69 24.4a1 1 0 0 1-.65-.24l-9.38-8a1 1 0 0 1-.11-1.41 1 1 0 0 1 1.45-.08l9.38 8a1 1 0 0 1-.65 1.76zM14.77 27.43a1 1 0 0 1-.68-.27 1 1 0 0 1-.09-1.42l10-10.67a1 1 0 1 1 1.47 1.37l-10 10.67a1 1 0 0 1-.7.32z" fill="#ffffff" opacity="1" data-original="#000000" class=""></path></g></svg>