<svg xmlns="http://www.w3.org/2000/svg" version="1.1" xmlns:xlink="http://www.w3.org/1999/xlink" width="512" height="512" x="0" y="0" viewBox="0 0 48 48" style="enable-background:new 0 0 512 512" xml:space="preserve" class=""><rect width="48" height="48" rx="9.6" ry="9.6" fill="#5484ff" shape="rounded"></rect><g transform="matrix(0.7,0,0,0.7,7.200000000000003,7.200000000000003)"><path d="m34 40-4 .002V36a1 1 0 0 0-1-1H19a1 1 0 0 0-1 1v4h-4a3.003 3.003 0 0 0-3 3v1a1 1 0 0 0 1 1h24a1 1 0 0 0 1-1v-1a3.003 3.003 0 0 0-3-3ZM19.36 24.401a1 1 0 0 1-1.415 0l-1.424-1.423a1 1 0 0 1 1.415-1.415l.716.717 1.848-1.847V20h-5v5h5v-1.74ZM19.36 13.401a1 1 0 0 1-1.415 0l-1.424-1.423a1 1 0 0 1 1.415-1.415l.716.717L20.5 9.433V9h-5v5h5v-1.74Z" fill="#ffffff" opacity="1" data-original="#000000"></path><path d="M37 3H11a2 2 0 0 0-2 2v25h30V5a2 2 0 0 0-2-2ZM22.5 26a1 1 0 0 1-1 1h-7a1 1 0 0 1-1-1v-7a1 1 0 0 1 1-1h7a1 1 0 0 1 1 1Zm0-11a1 1 0 0 1-1 1h-7a1 1 0 0 1-1-1V8a1 1 0 0 1 1-1h7a1 1 0 0 1 1 1Zm9 10h-6a1 1 0 0 1 0-2h6a1 1 0 0 1 0 2Zm2-4h-8a1 1 0 0 1 0-2h8a1 1 0 0 1 0 2Zm-9-8a1 1 0 0 1 1-1h6a1 1 0 0 1 0 2h-6a1 1 0 0 1-1-1Zm9-3h-8a1 1 0 0 1 0-2h8a1 1 0 0 1 0 2ZM7 8h.5v22H4V11a3.009 3.009 0 0 1 3-3ZM44 11v19h-3.5V8h.5a3.009 3.009 0 0 1 3 3ZM4 32v2a3.003 3.003 0 0 0 3 3h34a3.003 3.003 0 0 0 3-3v-2Z" fill="#ffffff" opacity="1" data-original="#000000"></path></g></svg>