<svg xmlns="http://www.w3.org/2000/svg" version="1.1" xmlns:xlink="http://www.w3.org/1999/xlink" width="512" height="512" x="0" y="0" viewBox="0 0 512 512" style="enable-background:new 0 0 512 512" xml:space="preserve" class=""><g><path d="M373.226 0H30.774C13.805 0 0 13.806 0 30.774v450.451C0 498.194 13.805 512 30.774 512h342.452C390.195 512 404 498.194 404 481.226V30.774C404 13.806 390.195 0 373.226 0zM384 481.226c0 5.941-4.833 10.774-10.774 10.774H30.774C24.833 492 20 487.167 20 481.226V30.774C20 24.833 24.833 20 30.774 20h342.452C379.167 20 384 24.833 384 30.774z" fill="#28aa4a" opacity="1" data-original="#000000"></path><path d="M340 142H192c-5.523 0-10 4.478-10 10s4.477 10 10 10h148c5.523 0 10-4.478 10-10s-4.477-10-10-10zM192 98h66.197c5.523 0 10-4.478 10-10s-4.477-10-10-10H192c-5.523 0-10 4.478-10 10s4.477 10 10 10zM340 78h-35.667c-5.523 0-10 4.478-10 10s4.477 10 10 10H340c5.523 0 10-4.478 10-10s-4.477-10-10-10zM340 278H192c-5.523 0-10 4.478-10 10s4.477 10 10 10h148c5.523 0 10-4.478 10-10s-4.477-10-10-10zM192 234h66.197c5.523 0 10-4.478 10-10s-4.477-10-10-10H192c-5.523 0-10 4.478-10 10s4.477 10 10 10zM340 214h-35.667c-5.523 0-10 4.478-10 10s4.477 10 10 10H340c5.523 0 10-4.478 10-10s-4.477-10-10-10zM340 414H192c-5.523 0-10 4.478-10 10s4.477 10 10 10h148c5.523 0 10-4.478 10-10s-4.477-10-10-10zM192 370h66.197c5.523 0 10-4.478 10-10s-4.477-10-10-10H192c-5.523 0-10 4.478-10 10s4.477 10 10 10zM340 350h-35.667c-5.523 0-10 4.478-10 10s4.477 10 10 10H340c5.523 0 10-4.478 10-10s-4.477-10-10-10zM120.949 101.846l-36.012 36.012-13.846-13.846c-3.905-3.904-10.237-3.904-14.143 0-3.905 3.905-3.905 10.237 0 14.143l20.917 20.917c1.953 1.952 4.512 2.929 7.071 2.929s5.119-.977 7.071-2.929l43.083-43.083c3.905-3.905 3.905-10.237 0-14.143-3.903-3.905-10.236-3.905-14.141 0zM135.071 216.929c-3.905-3.904-10.237-3.904-14.143 0L96 241.857l-24.929-24.929c-3.905-3.904-10.237-3.904-14.143 0-3.905 3.905-3.905 10.237 0 14.143L81.857 256l-24.929 24.929c-3.905 3.905-3.905 10.237 0 14.143C58.881 297.023 61.441 298 64 298s5.119-.977 7.071-2.929L96 270.143l24.929 24.929c1.953 1.952 4.512 2.929 7.071 2.929s5.119-.977 7.071-2.929c3.905-3.905 3.905-10.237 0-14.143L110.143 256l24.929-24.929c3.904-3.905 3.904-10.237-.001-14.142zM135.071 352.929c-3.905-3.904-10.237-3.904-14.143 0L96 377.857l-24.929-24.929c-3.905-3.904-10.237-3.904-14.143 0-3.905 3.905-3.905 10.237 0 14.143L81.857 392l-24.929 24.929c-3.905 3.905-3.905 10.237 0 14.143C58.881 433.023 61.441 434 64 434s5.119-.977 7.071-2.929L96 406.143l24.929 24.929c1.953 1.952 4.512 2.929 7.071 2.929s5.119-.977 7.071-2.929c3.905-3.905 3.905-10.237 0-14.143L110.143 392l24.929-24.929c3.904-3.905 3.904-10.237-.001-14.142zM474 54c-20.953 0-38 17.047-38 38v146c0 5.522 4.477 10 10 10s10-4.478 10-10V123.75h36v306.167h-36V328c0-5.522-4.477-10-10-10s-10 4.478-10 10v111.917c0 1.418.301 2.819.884 4.111l28 62.083a10.002 10.002 0 0 0 18.232 0l28-62.083a9.993 9.993 0 0 0 .884-4.111V92c0-20.953-17.047-38-38-38zm-18 49.75V92c0-9.925 8.075-18 18-18s18 8.075 18 18v11.75zm18 373.927-12.52-27.76h25.04z" fill="#28aa4a" opacity="1" data-original="#000000"></path><path d="M446 293c2.63 0 5.21-1.07 7.07-2.931A10.072 10.072 0 0 0 456 283c0-2.641-1.07-5.21-2.93-7.07S448.63 273 446 273s-5.21 1.069-7.07 2.93c-1.86 1.86-2.93 4.44-2.93 7.07s1.07 5.21 2.93 7.069A10.072 10.072 0 0 0 446 293z" fill="#28aa4a" opacity="1" data-original="#000000"></path></g></svg>