<svg xmlns="http://www.w3.org/2000/svg" version="1.1" xmlns:xlink="http://www.w3.org/1999/xlink" width="512" height="512" x="0" y="0" viewBox="0 0 32 32" style="enable-background:new 0 0 512 512" xml:space="preserve" class=""><rect width="32" height="32" rx="6.4" ry="6.4" fill="#5484ff" shape="rounded"></rect><g transform="matrix(0.7,0,0,0.7,4.800000000000001,4.800000000000001)"><g data-name="Layer 1"><path d="M30 6a2 2 0 0 0-2-2H13.41l2 2z" fill="#ffffff" opacity="1" data-original="#000000" class=""></path><path d="M14.29 7.71 10.59 4H4a2 2 0 0 0-2 2v20a2 2 0 0 0 2 2h24a2 2 0 0 0 2-2V8H15a1 1 0 0 1-.71-.29zM5 8a1 1 0 0 1 0-2 1 1 0 0 1 0 2zm3-1a1 1 0 0 1 1-1 1 1 0 1 1-1 1zm4.69 12.29a1 1 0 0 1 0 1.42 1 1 0 0 1-1.42 0l-2-2a1 1 0 0 1 0-1.42l2-2a1 1 0 0 1 1.42 1.42L11.41 18zm6.58-2.58a1 1 0 0 1 1.42-1.42l2 2a1 1 0 0 1 0 1.42l-2 2a1 1 0 0 1-1.42 0 1 1 0 0 1 0-1.42L20.59 18zm-2-2.66a1 1 0 0 1 .73 1.27l-2 6a1 1 0 0 1-1 .68 1.25 1.25 0 0 1-.32-.05 1 1 0 0 1-.63-1.27l2-6a1 1 0 0 1 1.27-.63z" fill="#ffffff" opacity="1" data-original="#000000" class=""></path></g></g></svg>