<svg xmlns="http://www.w3.org/2000/svg" version="1.1" xmlns:xlink="http://www.w3.org/1999/xlink" width="512" height="512" x="0" y="0" viewBox="0 0 32 32" style="enable-background:new 0 0 512 512" xml:space="preserve" fill-rule="evenodd" class=""><g><path d="M19.006 23.615a2.5 2.5 0 0 1 1.814 2.154l.323 3.154a.998.998 0 0 1-.995 1.102h-7.896a.999.999 0 0 1-.995-1.102l.323-3.154a2.5 2.5 0 0 1 1.814-2.154 3.496 3.496 0 0 0 5.612 0zM16.2 18.52a3.002 3.002 0 1 1-.001 6 3.002 3.002 0 0 1 .001-6zM28.01 7.109a2.501 2.501 0 0 1 1.814 2.154l.323 3.154a.998.998 0 0 1-.996 1.102h-7.896a.999.999 0 0 1-.994-1.102l.322-3.154a2.503 2.503 0 0 1 1.814-2.154 3.499 3.499 0 0 0 5.613 0zm-2.807-5.094a3.002 3.002 0 1 1-3.002 3.001 3.003 3.003 0 0 1 3.002-3.001zm-15.2 5.094a2.503 2.503 0 0 1 1.814 2.154l.322 3.154a1.002 1.002 0 0 1-.994 1.102H3.249a.999.999 0 0 1-.996-1.102l.323-3.154A2.501 2.501 0 0 1 4.39 7.109a3.499 3.499 0 0 0 5.613 0zM7.197 2.015a3.003 3.003 0 0 1 3.001 3.001 3.002 3.002 0 1 1-3.002-3.001zm14.508 22.081-.488-1.952a.5.5 0 0 1 .97-.243l.309 1.235a9.482 9.482 0 0 0 3.16-8.067.5.5 0 1 1 .995-.099 10.476 10.476 0 0 1-3.37 8.806l1.044.262a.501.501 0 0 1-.243.97l-1.96-.49a.506.506 0 0 1-.417-.422zM5.7 16.246l-.656.634a.502.502 0 0 1-.695-.72l1.55-1.5a.5.5 0 0 1 .356-.14l.04.002c.122.012.23.066.31.15l1.453 1.5a.5.5 0 0 1-.72.696l-.64-.66a9.496 9.496 0 0 0 3.803 7.415.501.501 0 0 1-.601.8 10.494 10.494 0 0 1-4.2-8.177zM19.347 7.05a9.463 9.463 0 0 0-3.147-.534 9.469 9.469 0 0 0-3.801.79.5.5 0 1 1-.4-.915 10.454 10.454 0 0 1 4.201-.876c1.073 0 2.107.161 3.083.46l-.541-1.263a.5.5 0 1 1 .92-.394l1 2.334a.503.503 0 0 1-.088.532l-1.501 1.667a.5.5 0 1 1-.743-.67z" fill="#28aa4a" opacity="1" data-original="#000000" class=""></path></g></svg>