<svg id="Capa_1" enable-background="new 0 0 512 512" height="512" viewBox="0 0 512 512" width="512" xmlns="http://www.w3.org/2000/svg"><g><path d="m246.933 148.6v-17.133c0-8.547-6.953-15.5-15.5-15.5h-83.4c-8.547 0-15.5 6.953-15.5 15.5v17.133c0 8.547 6.953 15.5 15.5 15.5h83.4c8.547 0 15.5-6.954 15.5-15.5zm-99.4 0v-17.133c0-.275.224-.5.5-.5h83.4c.276 0 .5.225.5.5v17.133c0 .275-.224.5-.5.5h-83.4c-.276 0-.5-.225-.5-.5z"/><path d="m132.033 198.8h-50.266c-8.547 0-15.5 6.953-15.5 15.5v50.267c0 8.547 6.953 15.5 15.5 15.5h50.267c8.547 0 15.5-6.953 15.5-15.5v-50.267c-.001-8.547-6.954-15.5-15.501-15.5zm.5 65.766c0 .275-.224.5-.5.5h-50.266c-.276 0-.5-.225-.5-.5v-50.266c0-.275.224-.5.5-.5h50.267c.276 0 .5.225.5.5v50.266z"/><path d="m132.033 298.2h-50.266c-8.547 0-15.5 6.953-15.5 15.5v50.267c0 8.547 6.953 15.5 15.5 15.5h50.267c8.547 0 15.5-6.953 15.5-15.5v-50.267c-.001-8.547-6.954-15.5-15.501-15.5zm.5 65.767c0 .275-.224.5-.5.5h-50.266c-.276 0-.5-.225-.5-.5v-50.267c0-.275.224-.5.5-.5h50.267c.276 0 .5.225.5.5v50.267z"/><path d="m185.592 48.134h8.283c4.142 0 7.5-3.357 7.5-7.5s-3.358-7.5-7.5-7.5h-8.283c-4.142 0-7.5 3.357-7.5 7.5s3.358 7.5 7.5 7.5z"/><path d="m379.467 232.264v-175.064c0-22.405-18.228-40.634-40.634-40.634h-116.371c-7.606-10.315-19.777-16.566-32.729-16.566-12.951 0-25.123 6.251-32.729 16.566h-116.371c-22.405 0-40.633 18.229-40.633 40.634v32.2c0 4.143 3.358 7.5 7.5 7.5s7.5-3.357 7.5-7.5v-32.2c0-14.135 11.499-25.634 25.633-25.634h77.113c-1.143 2.801-1.779 5.86-1.779 9.067v9.067h-58.767c-13.271 0-24.067 10.796-24.067 24.066v347.9c0 13.271 10.796 24.066 24.067 24.066h195.894c3.984 6.405 8.465 12.47 13.398 18.133h-225.859c-14.134.001-25.633-11.498-25.633-25.632v-313.833c0-4.143-3.358-7.5-7.5-7.5s-7.5 3.357-7.5 7.5v313.833c0 22.405 18.228 40.633 40.633 40.633h241.081c24.395 20.656 55.925 33.134 90.319 33.134 77.178 0 139.967-62.789 139.967-139.967 0-74.684-58.798-135.891-132.533-139.769zm-15-175.064v175.08c-6.104.332-12.161 1.063-18.134 2.181v-160.694c0-13.271-10.796-24.066-24.066-24.066h-58.767v-9.066c0-3.207-.636-6.267-1.779-9.067h77.112c14.135-.002 25.634 11.497 25.634 25.632zm-216.15-25.634h12.727c2.677 0 5.15-1.427 6.491-3.743 4.577-7.909 13.084-12.823 22.198-12.823s17.621 4.913 22.198 12.823c1.341 2.316 3.814 3.743 6.491 3.743h12.727 8.283c4.999 0 9.067 4.067 9.067 9.067v33.133c0 4.999-4.067 9.066-9.067 9.066h-99.4c-4.999 0-9.066-4.067-9.066-9.066v-33.132c0-5 4.067-9.067 9.066-9.067h8.285zm223.716 465.434c-68.907 0-124.967-56.06-124.967-124.967 0-25.817 7.805-50.595 22.569-71.654 2.378-3.392 1.557-8.068-1.835-10.446-3.393-2.378-8.068-1.556-10.446 1.835-5.117 7.297-9.482 14.995-13.079 22.999h-71.109c-4.142 0-7.5 3.357-7.5 7.5s3.358 7.5 7.5 7.5h65.387c-4.283 13.545-6.487 27.759-6.487 42.267 0 20.951 4.636 40.838 12.922 58.7h-187.788c-5 0-9.067-4.067-9.067-9.066v-347.9c0-4.999 4.067-9.066 9.067-9.066h58.767v9.066c0 13.271 10.796 24.066 24.066 24.066h99.4c13.271 0 24.067-10.796 24.067-24.066v-9.068h58.767c4.999 0 9.066 4.067 9.066 9.066v164.367c-17.725 5.388-34.346 14.262-48.744 26.236-3.185 2.648-3.619 7.377-.971 10.562 2.649 3.185 7.378 3.618 10.562.971 22.36-18.595 50.719-28.836 79.853-28.836 68.907 0 124.967 56.06 124.967 124.967s-56.06 124.967-124.967 124.967z"/><path d="m372.033 265.066c-58.981 0-106.967 47.985-106.967 106.967s47.986 106.967 106.967 106.967 106.967-47.985 106.967-106.967-47.985-106.967-106.967-106.967zm0 198.934c-50.711 0-91.967-41.256-91.967-91.967s41.256-91.967 91.967-91.967 91.967 41.256 91.967 91.967-41.256 91.967-91.967 91.967z"/><path d="m414.139 332.603c-5.752-6.432-15.703-7.032-22.186-1.338l-28.346 24.902-11.849-9.379c-.028-.021-.057-.044-.085-.065-6.55-5.035-15.692-4.233-21.267 1.864l-11.419 12.489c-2.922 3.196-4.379 7.336-4.103 11.657.275 4.321 2.248 8.242 5.55 11.036l35.624 30.198c.001.002.003.003.004.004 2.158 1.826 4.84 2.736 7.521 2.736 2.766 0 5.529-.969 7.713-2.9l52.59-46.492c3.169-2.804 5.051-6.674 5.299-10.898s-1.168-8.287-3.988-11.442zm-.19 23.476-50.41 44.565-33.408-28.32c-.169-.143-.262-.327-.276-.548-.014-.22.055-.414.204-.578l11.419-12.489c.154-.17.365-.257.578-.257.159 0 .318.049.457.148l14.027 11.104c.028.022.057.044.085.065 4.397 3.379 10.614 3.178 14.778-.484l30.45-26.751c.322-.285.815-.253 1.102.065l11.058 12.37c.145.162.211.354.198.569-.013.217-.102.4-.262.541z"/><path d="m256 215.366h-82.834c-4.142 0-7.5 3.357-7.5 7.5s3.358 7.5 7.5 7.5h82.834c4.143 0 7.5-3.357 7.5-7.5 0-4.142-3.357-7.5-7.5-7.5z"/><path d="m289.134 230.366h16.566c4.143 0 7.5-3.357 7.5-7.5s-3.357-7.5-7.5-7.5h-16.566c-4.143 0-7.5 3.357-7.5 7.5s3.357 7.5 7.5 7.5z"/><path d="m222.867 248.5h-49.7c-4.142 0-7.5 3.357-7.5 7.5s3.358 7.5 7.5 7.5h49.7c4.142 0 7.5-3.357 7.5-7.5s-3.358-7.5-7.5-7.5z"/><path d="m173.166 362.9h49.7c4.142 0 7.5-3.357 7.5-7.5s-3.358-7.5-7.5-7.5h-49.7c-4.142 0-7.5 3.357-7.5 7.5s3.358 7.5 7.5 7.5z"/></g></svg>