<svg xmlns="http://www.w3.org/2000/svg" version="1.1" xmlns:xlink="http://www.w3.org/1999/xlink" width="512" height="512" x="0" y="0" viewBox="0 0 512 512" style="enable-background:new 0 0 512 512" xml:space="preserve" class=""><g><path d="M481.528 276.703c-10.994-8.084-26.361-7.336-36.508 1.786l-65.637 58.949c-8.574-6.626-19.74-9.513-30.706-7.493l-58.62 10.685-76.812-21.141c-23.876-6.569-50.029-5.05-73.954 5.707l-32.802 14.75-2.11-6.866h-.005c-3.425-11.142-15.272-17.406-26.419-14.005l-44.353 13.633c-11.164 3.429-17.431 15.248-14 26.419L60.14 491.058c3.424 11.148 15.216 17.431 26.419 14l44.358-13.628c11.164-3.429 17.431-15.248 14-26.419l-.698-2.272 46.08-3.216c11.552-.819 23.098.2 34.345 3.001l54.757 13.638a64.342 64.342 0 0 0 60.135-16.034l144.902-139.2c12.946-12.438 11.585-33.571-2.91-44.225zM127.335 479.767 82.977 493.4a8.937 8.937 0 0 1-11.175-5.926L31.26 355.544c-1.446-4.721 1.185-9.723 5.926-11.175l44.353-13.633c4.615-1.438 9.708 1.139 11.185 5.926h-.005l40.538 131.931c1.447 4.685-1.16 9.713-5.922 11.174zm348.653-167.633-144.902 139.2c-13.278 12.761-31.842 17.216-48.736 12.995l-54.762-13.638a122.116 122.116 0 0 0-38.137-3.334l-48.909 3.415-30.444-99.08 34.195-15.373c21.226-9.549 44.472-10.917 65.718-5.073l78.151 21.512a5.943 5.943 0 0 0 2.715.119l59.992-10.937c10.199-1.848 20.674 2.444 26.609 10.98a6.657 6.657 0 0 1-2.301 9.675l-53.647 28.991a71.974 71.974 0 0 1-33.473 8.627l-27.748.248a6.098 6.098 0 0 0 .052 12.195h.052l27.752-.248a84.285 84.285 0 0 0 39.166-10.094l53.647-28.991c9.725-5.265 12.88-17.754 6.759-27l65.427-58.763c5.883-5.278 14.776-5.716 21.141-1.034 8.361 6.147 9.21 18.371 1.683 25.608z" fill="#ffffff" opacity="1" data-original="#000000"></path><path d="M469.995 203.278a6.097 6.097 0 0 0 6.097-6.097v-83.166l4.654-1.706c5.154-1.891 8.503-6.659 8.531-12.152.029-5.492-3.273-10.299-8.408-12.242L270.951 8.487a38.15 38.15 0 0 0-27.171.038L35.894 87.9c-5.121 1.958-8.403 6.764-8.37 12.247.038 5.483 3.392 10.246 8.541 12.133l69.505 25.475v81.009c0 15.848 8.813 30.387 22.994 37.942 86.171 45.89 173.555 45.9 259.751 0 14.191-7.555 23.003-22.093 23.003-37.942v-81.009l52.58-19.271v78.697a6.097 6.097 0 0 0 6.097 6.097zM39.72 100.066c0-.572.353-.705.529-.772l207.88-79.374a26.028 26.028 0 0 1 18.506-.029l209.919 79.427c.171.067.534.205.529.772 0 .572-.362.705-.534.767l-209.143 76.655a26.127 26.127 0 0 1-17.93 0L40.258 100.828c-.172-.062-.534-.195-.538-.762zm359.403 118.698c0 11.332-6.336 21.746-16.539 27.176-82.366 43.872-165.909 43.872-248.285 0-10.199-5.43-16.534-15.844-16.534-27.176v-76.54l127.52 46.739a38.32 38.32 0 0 0 26.314 0l127.525-46.739v76.54z" fill="#ffffff" opacity="1" data-original="#000000"></path></g></svg>