<svg xmlns="http://www.w3.org/2000/svg" version="1.1" xmlns:xlink="http://www.w3.org/1999/xlink" width="512" height="512" x="0" y="0" viewBox="0 0 512 512" style="enable-background:new 0 0 512 512" xml:space="preserve" class=""><g><path d="M511.996 187.974a7.983 7.983 0 0 0-.08-1.009c-.008-.051-.008-.102-.016-.153-.006-.042-.019-.082-.026-.124a8.092 8.092 0 0 0-.263-1.09l-.005-.021c-.006-.018-.016-.034-.022-.053a8.025 8.025 0 0 0-.416-1.008c-.018-.038-.031-.078-.051-.114l-.038-.068a8.014 8.014 0 0 0-.563-.917c-.022-.03-.04-.063-.061-.094-.032-.044-.07-.083-.102-.126a8.18 8.18 0 0 0-.674-.789c-.014-.014-.025-.029-.039-.042l-.014-.015c-.01-.01-.021-.018-.03-.028a8.278 8.278 0 0 0-.831-.708c-.034-.026-.064-.058-.098-.083l-.001-.001-59.575-43.253a8.083 8.083 0 0 0-11.292 1.793 8.084 8.084 0 0 0 1.793 11.291l39.429 28.627H329.605l-190.549-61.333a8.172 8.172 0 0 0-1.601-.342c-3.736-.41-7.375 1.842-8.573 5.561L110.82 179.99H32.98L256.001 18.075l163.359 118.6a8.087 8.087 0 0 0 11.292-1.793 8.083 8.083 0 0 0-1.793-11.292L260.75 1.542a8.084 8.084 0 0 0-9.5 0L3.335 181.533l-.001.001c-.034.025-.064.057-.098.083a8.24 8.24 0 0 0-.831.708l-.03.028-.015.015-.036.04a8.084 8.084 0 0 0-.676.791c-.032.043-.07.082-.101.125-.022.03-.04.063-.061.094a8.014 8.014 0 0 0-.563.917l-.038.068c-.019.038-.032.077-.051.114-.159.324-.301.66-.416 1.007-.006.018-.016.034-.023.053-.002.006-.002.014-.005.021a8.003 8.003 0 0 0-.262 1.089c-.008.042-.021.083-.027.125-.008.051-.009.101-.015.153a8.372 8.372 0 0 0-.08 1.009c0 .029-.004.057-.004.086l-.002.014v315.842c0 .044.005.087.006.132.002.147.012.292.023.439.009.123.016.246.03.368.016.136.04.271.063.406.022.128.041.257.068.382.028.127.064.251.097.377.034.129.068.26.109.388.039.12.086.237.13.356.049.128.095.257.149.382.05.113.107.223.162.335.063.126.123.252.191.375.058.104.123.204.185.305.078.126.155.251.239.372.065.093.136.182.205.274.094.124.189.246.29.364.027.031.05.066.076.096.045.051.096.094.141.143a9.123 9.123 0 0 0 .623.606c.12.104.244.204.369.301.096.074.192.149.291.218.127.089.259.172.392.254.1.063.199.126.302.183.148.083.3.156.453.23.092.044.181.093.275.133.184.08.375.149.566.216.066.023.129.051.195.071.245.078.494.143.747.198.015.003.03.009.046.012a8.415 8.415 0 0 0 1.661.168h495.832c.57 0 1.125-.06 1.661-.172.015-.003.03-.009.046-.012.253-.055.503-.12.747-.198.066-.021.129-.049.195-.071.192-.067.382-.135.567-.216.093-.04.182-.088.274-.132.153-.073.306-.147.453-.23.102-.057.202-.122.302-.183.133-.082.264-.165.392-.254.099-.069.195-.143.291-.218a7.567 7.567 0 0 0 .992-.907c.046-.05.097-.093.141-.143.027-.031.05-.065.077-.096.101-.119.196-.24.29-.364.069-.092.14-.181.205-.274.084-.121.162-.246.239-.372.063-.101.128-.203.185-.305.069-.123.129-.25.192-.376.055-.111.111-.221.161-.333.055-.126.101-.255.15-.384.044-.117.091-.235.129-.354.041-.127.074-.258.109-.388.033-.125.069-.25.097-.377.027-.125.046-.253.068-.382.023-.136.046-.271.063-.406.014-.122.022-.245.03-.368.01-.147.019-.292.022-.439.001-.044.006-.087.006-.132V188.113l.001-.015v-.038c-.001-.029-.005-.057-.005-.086zm-32.975 8.184-30.466 22.118-68.718-22.118h99.184zm-354.615-5.607 17.39-54.026 184.061 59.245 106.487 34.276-37.068 26.911L239.02 206.66c-4.249-1.362-8.804.968-10.173 5.219a8.085 8.085 0 0 0 5.219 10.173l145.002 46.673-19.811 14.382-186.928-60.167a8.085 8.085 0 0 0-4.954 15.392l175.671 56.544-19.81 14.381-24.31-7.826a8.087 8.087 0 0 0-10.173 5.219 8.086 8.086 0 0 0 5.219 10.173l13.054 4.202-51.025 37.044-150.376-109.17 18.781-58.348zm-18.791 5.607-13.758 42.745-58.877-42.745h72.635zm-89.447 7.775L191.563 331.27 16.168 486.004V203.933zm13.301 291.899 175.503-154.828 46.281 33.6c.034.025.072.041.107.066.314.22.636.424.973.594.01.004.018.011.027.016l.012.006c.34.17.692.309 1.05.43.115.039.232.07.349.104.252.072.507.133.764.18.123.023.244.047.367.064.35.049.702.079 1.055.081.013 0 .026.003.038.003l.006-.001.006.001c.013 0 .025-.003.038-.003a7.92 7.92 0 0 0 1.055-.081c.124-.017.246-.042.369-.065.257-.047.51-.107.761-.179.117-.033.236-.065.352-.105.357-.12.708-.259 1.048-.429l.013-.006c.011-.005.02-.013.031-.018.335-.171.656-.373.969-.592.034-.025.073-.041.108-.066l46.279-33.599 175.503 154.827H29.469zm466.363-9.829L320.438 331.272l80.977-58.789.015-.011 94.402-68.538v282.069z" fill="#999999" opacity="1" data-original="#000000"></path><path d="m180.823 204.869 29.455 9.48c.823.264 1.658.39 2.479.39a8.085 8.085 0 0 0 2.475-15.782l-29.455-9.48a8.088 8.088 0 0 0-10.173 5.219 8.086 8.086 0 0 0 5.219 10.173zM273.06 309.687a8.085 8.085 0 0 0 2.475-15.782l-116.656-37.548c-4.247-1.362-8.804.968-10.173 5.219a8.088 8.088 0 0 0 5.22 10.173l116.655 37.548c.823.264 1.657.39 2.479.39z" fill="#999999" opacity="1" data-original="#000000"></path></g></svg>