<svg xmlns="http://www.w3.org/2000/svg" version="1.1" xmlns:xlink="http://www.w3.org/1999/xlink" width="512" height="512" x="0" y="0" viewBox="0 0 64 64" style="enable-background:new 0 0 512 512" xml:space="preserve" class=""><g><path d="M58.56 24.9c.298.07-6.815-5.703-6.9-5.81v11.42c1.151-.937 5.84-4.762 6.9-5.61z" fill="#999999" opacity="1" data-original="#000000"></path><path d="M59.44 26.76c-5.065 4.125-11.653 9.472-16.71 13.6a.999.999 0 0 1-1.26-1.55c1.705-1.393 6.55-5.325 8.19-6.67 0 0-.004-17.564 0-19.18a1.272 1.272 0 0 0-1.27-1.27c-9.597-.007-23.166.005-32.78 0a1.272 1.272 0 0 0-1.27 1.27v19.18c1.61 1.317 6.5 5.294 8.19 6.67a.999.999 0 0 1-1.26 1.55c-5.049-4.132-11.633-9.458-16.71-13.6a3.737 3.737 0 0 0-.07.75v28.44a3.952 3.952 0 0 0 .59 2.1l24.31-20.54a4.04 4.04 0 0 1 5.22 0l24.35 20.47a4.007 4.007 0 0 0 .55-2.03V27.51a3.74 3.74 0 0 0-.07-.75zm-19.5-.77a3.006 3.006 0 0 1-5.21 1.26A3.916 3.916 0 0 1 32 28.33a4.05 4.05 0 1 1 4.05-4.05v1.08a.98.98 0 0 0 1.93.21 6.152 6.152 0 0 0-5.3-7.37c-7.81-.67-9.432 10.504-1.77 12.11a6.209 6.209 0 0 0 4.55-.98.998.998 0 0 1 1.39.26c1.195 2.193-4.882 3.182-6.27 2.69-6.226-.928-8.892-9.02-4.55-13.5 5.526-6.04 15.644-.788 13.91 7.21z" fill="#999999" opacity="1" data-original="#000000"></path><path d="M33.32 39.04a2.03 2.03 0 0 0-2.64 0L6.52 59.46a4.035 4.035 0 0 0 2.02.54h46.92a4.008 4.008 0 0 0 2.09-.59zM40.32 9.69l-5.73-4.76a4.072 4.072 0 0 0-5.18 0l-5.73 4.76zM12.34 30.51V19.1c-.107.12-7.152 5.845-6.89 5.8 1.025.831 5.772 4.7 6.89 5.61zM32 22.23a2.05 2.05 0 0 0 0 4.1 2.05 2.05 0 0 0 0-4.1z" fill="#999999" opacity="1" data-original="#000000"></path></g></svg>