<svg xmlns="http://www.w3.org/2000/svg" version="1.1" xmlns:xlink="http://www.w3.org/1999/xlink" width="512" height="512" x="0" y="0" viewBox="0 0 32 32" style="enable-background:new 0 0 512 512" xml:space="preserve"><g><g fill="#fcd354" data-name="Fast forward"><path d="m31.707 15.293-10-10A1 1 0 0 0 21 5h-7a1 1 0 0 0-.707 1.707L22.586 16l-9.293 9.293A1 1 0 0 0 14 27h7a1 1 0 0 0 .707-.293l10-10a1 1 0 0 0 0-1.414z" fill="#ffffff" opacity="1" data-original="#fcd354"></path><path d="m18.707 15.293-10-10A1 1 0 0 0 8 5H1a1 1 0 0 0-.707 1.707L9.586 16 .293 25.293A1 1 0 0 0 1 27h7a1 1 0 0 0 .707-.293l10-10a1 1 0 0 0 0-1.414z" fill="#ffffff" opacity="1" data-original="#fcd354"></path></g></g></svg>