<svg xmlns="http://www.w3.org/2000/svg" version="1.1" xmlns:xlink="http://www.w3.org/1999/xlink" width="512" height="512" x="0" y="0" viewBox="0 0 512 512" style="enable-background:new 0 0 512 512" xml:space="preserve"><g><path d="M362 0H150C67.16 0 0 67.16 0 150v212c0 82.84 67.16 150 150 150h212c82.84 0 150-67.16 150-150V150C512 67.16 444.84 0 362 0zm100 362c0 55.14-44.86 100-100 100H150c-55.14 0-100-44.86-100-100V150C50 94.86 94.86 50 150 50h212c55.14 0 100 44.86 100 100zm-126.73-64.98c0 10.8-1.9 20.51-5.71 29.15s-8.9 15.94-15.27 21.9c-6.38 5.96-13.75 10.54-22.13 13.73s-17.14 4.78-26.3 4.78h-89.14v-44.26h89.14c2.98 0 5.99-.46 9.02-1.39s5.76-2.41 8.17-4.47 4.37-4.68 5.86-7.87 2.24-7.04 2.24-11.57c0-4.11-.75-7.73-2.24-10.87s-3.45-5.76-5.86-7.87c-2.42-2.11-5.14-3.7-8.17-4.78s-6.04-1.62-9.02-1.62h-89.14l12.95-126.46h136.49v44.26h-96.7l-4.01 37.94h40.41c9.15 0 17.91 1.6 26.3 4.78 8.38 3.19 15.76 7.79 22.13 13.8 6.37 6.02 11.46 13.32 15.27 21.9 3.8 8.59 5.71 18.23 5.71 28.92z" data-name="5" fill="#28aa4a" opacity="1" data-original="#000000"></path></g></svg>