<svg xmlns="http://www.w3.org/2000/svg" version="1.1" xmlns:xlink="http://www.w3.org/1999/xlink" width="512" height="512" x="0" y="0" viewBox="0 0 512 512" style="enable-background:new 0 0 512 512" xml:space="preserve"><g><g data-name="Layer 2"><g data-name="Layer 2 copy 10"><g data-name="29"><path d="M233.58 406h-2.8c-22.72-.28-46.89-3.9-71.91-10.77v-62.8c22.17 6.57 42.22 10.94 59.7 13a161.46 161.46 0 0 0 18.64 1.18c11.79 0 21.85-1.7 29.88-5.05 13.28-5.53 20.29-16.05 20.29-30.44 0-14.13-6.92-25.21-20-32-11.88-6.18-27.88-9.72-47.55-10.51-3.1-.12-6.3-.19-9.52-.19a323.16 323.16 0 0 0-47.05 3.77c2.48-27.06 5-54.66 7.47-82.15 2.54-28.27 5.12-56.51 7.66-84h158.33v59.82h-101.9l-.6 5.65a444.26 444.26 0 0 1-2.25 17.75c-.92 6.36-1.7 12.67-2.31 18.75l-.7 7 7.06-.08h2.85c23.62 0 44.14 3.52 61 10.48 17.11 7.07 30.41 17.62 39.53 31.37s13.76 31.3 13.76 52.1c0 22.22-5.26 40.66-15.64 54.83s-24.93 25.05-43 32C276.8 402.53 256.3 406 233.58 406z" fill="#28aa4a" opacity="1" data-original="#000000"></path><path d="M416.86 40A55.2 55.2 0 0 1 472 95.14v321.72A55.2 55.2 0 0 1 416.86 472H95.14A55.2 55.2 0 0 1 40 416.86V95.14A55.2 55.2 0 0 1 95.14 40zm0-40H95.14A95.13 95.13 0 0 0 0 95.14v321.72A95.13 95.13 0 0 0 95.14 512h321.72A95.13 95.13 0 0 0 512 416.86V95.14A95.13 95.13 0 0 0 416.86 0z" fill="#28aa4a" opacity="1" data-original="#000000"></path></g></g></g></g></svg>