<svg xmlns="http://www.w3.org/2000/svg" version="1.1" xmlns:xlink="http://www.w3.org/1999/xlink" width="512" height="512" x="0" y="0" viewBox="0 0 512 512" style="enable-background:new 0 0 512 512" xml:space="preserve" class=""><g><path d="M114.29 36a8 8 0 0 1-8 8H44v62.29a8 8 0 0 1-16 0V36a8 8 0 0 1 8-8h70.29a8 8 0 0 1 8 8zm-8 432H44v-62.29a8 8 0 0 0-16 0V476a8 8 0 0 0 8 8h70.29a8 8 0 0 0 0-16zM405.71 44H468v62.29a8 8 0 0 0 16 0V36a8 8 0 0 0-8-8h-70.29a8 8 0 0 0 0 16zM476 397.71a8 8 0 0 0-8 8V468h-62.29a8 8 0 0 0 0 16H476a8 8 0 0 0 8-8v-70.29a8 8 0 0 0-8-8zm-220 35.169a8 8 0 0 0-8 8V496a8 8 0 0 0 16 0v-55.121a8 8 0 0 0-8-8zM496 248h-55.122a8 8 0 0 0 0 16H496a8 8 0 0 0 0-16zm-416.879 8a8 8 0 0 0-8-8H16a8 8 0 0 0 0 16h55.121a8 8 0 0 0 8-8zM256 79.121a8 8 0 0 0 8-8V16a8 8 0 0 0-16 0v55.121a8 8 0 0 0 8 8zm116.059 105.177c10.771 10.109 13.53 25.759 6.866 38.941-1.231 2.436-2.34 4.599-3.336 6.541-3.987 7.775-5.989 11.679-6.572 14.985-.583 3.308-.038 7.659 1.05 16.328.271 2.167.574 4.579.898 7.29 1.753 14.667-6.191 28.429-19.771 34.243-.81.347-1.582.676-2.337.997l26.139 60.687a8 8 0 0 1-1.143 8.214 7.988 7.988 0 0 1-7.81 2.788l-35.171-7.202-18.931 30.505a8 8 0 0 1-14.145-1.052l-22.903-53.173-2.995-.923c-8.349-2.576-12.54-3.869-15.898-3.869-2.581 0-5.663.767-10.738 2.29l-31.958 68.642a8.003 8.003 0 0 1-14.17.643l-18.038-31.042-35.366 6.181a8 8 0 0 1-8.629-11.258l32.07-68.883-1.602-.676c-2.012-.849-4.252-1.793-6.763-2.868-13.579-5.815-21.524-19.577-19.771-34.243.324-2.711.626-5.123.898-7.29 1.087-8.669 1.633-13.021 1.05-16.328s-2.584-7.21-6.572-14.985c-.996-1.942-2.105-4.105-3.336-6.541-6.664-13.183-3.904-28.832 6.866-38.941 1.991-1.869 3.773-3.522 5.374-5.007 6.406-5.942 9.621-8.925 11.3-11.833 1.679-2.907 2.654-7.183 4.598-15.7.486-2.129 1.026-4.5 1.649-7.159 3.369-14.382 15.542-24.596 30.291-25.417 2.727-.152 5.155-.272 7.335-.382 8.727-.434 13.106-.652 16.262-1.801 3.155-1.148 6.651-3.797 13.616-9.073 1.74-1.318 3.678-2.786 5.863-4.422 11.826-8.854 27.717-8.852 39.542 0 2.186 1.636 4.124 3.104 5.863 4.422 6.965 5.276 10.46 7.925 13.616 9.073 3.155 1.148 7.535 1.367 16.262 1.801 2.181.109 4.608.229 7.335.382 14.749.82 26.922 11.035 30.291 25.418.623 2.658 1.164 5.029 1.649 7.158 1.943 8.518 2.919 12.793 4.598 15.7 1.679 2.908 4.895 5.891 11.3 11.833 1.601 1.483 3.383 3.137 5.374 5.006zM225.237 346.992c-.615.034-1.23.068-1.842.068-10.896 0-21.226-5.415-27.473-14.966a1227.058 1227.058 0 0 1-3.997-6.161c-4.085-6.326-6.417-9.933-8.63-12.192l-25.221 54.171 25.76-4.502a8.004 8.004 0 0 1 8.294 3.861l13.139 22.61zm129 9.571-20.053-46.559c-1.893.947-3.295 1.802-4.418 2.743-2.572 2.158-4.951 5.843-9.69 13.183-1.185 1.834-2.504 3.877-3.999 6.163-5.336 8.16-13.656 13.297-22.761 14.621l13.111 30.441 13.789-22.22a7.99 7.99 0 0 1 8.402-3.619zm6.872-160.599a1118.458 1118.458 0 0 0-5.305-4.942c-15.225-14.124-15.996-15.459-20.615-35.705-.479-2.102-1.013-4.442-1.628-7.067-1.763-7.524-7.887-12.663-15.602-13.093-2.691-.149-5.088-.269-7.241-.376-20.742-1.032-22.19-1.56-38.744-14.101-1.718-1.302-3.631-2.752-5.79-4.367-3.093-2.315-6.638-3.473-10.183-3.473s-7.09 1.157-10.183 3.473c-2.159 1.615-4.072 3.065-5.79 4.367-16.554 12.541-18.002 13.068-38.744 14.101-2.153.107-4.55.227-7.242.376-7.715.43-13.839 5.568-15.602 13.092-.615 2.626-1.149 4.967-1.628 7.068-4.619 20.246-5.39 21.581-20.615 35.705-1.58 1.466-3.34 3.098-5.306 4.942-5.634 5.288-7.022 13.161-3.536 20.057 1.216 2.405 2.311 4.541 3.294 6.459 9.477 18.481 9.745 19.999 7.16 40.605-.268 2.139-.567 4.521-.887 7.197-.917 7.673 3.08 14.596 10.183 17.638 2.479 1.062 4.691 1.993 6.678 2.831 19.137 8.064 20.318 9.056 31.584 26.503 1.169 1.811 2.471 3.826 3.946 6.082 4.229 6.468 11.744 9.204 19.137 6.965 2.581-.779 4.875-1.487 6.934-2.123 19.846-6.121 21.388-6.12 41.231 0 2.06.636 4.353 1.344 6.933 2.123 7.397 2.236 14.909-.498 19.138-6.965 1.476-2.257 2.778-4.273 3.948-6.085 11.266-17.445 12.446-18.437 31.586-26.502 1.986-.837 4.197-1.769 6.674-2.829 7.103-3.042 11.1-9.965 10.183-17.638-.32-2.677-.619-5.059-.887-7.197-2.584-20.606-2.317-22.124 7.16-40.605.983-1.918 2.079-4.054 3.294-6.459 3.487-6.896 2.099-14.769-3.535-20.057zm-27.159 25.993c0 42.981-34.968 77.95-77.95 77.95s-77.95-34.969-77.95-77.95 34.968-77.95 77.95-77.95 77.95 34.969 77.95 77.95zm-16 0c0-34.159-27.791-61.95-61.95-61.95-34.16 0-61.95 27.791-61.95 61.95s27.791 61.95 61.95 61.95c34.16 0 61.95-27.791 61.95-61.95zm-37.326-25.209-36.857 33.448-12.11-12.11a8 8 0 0 0-11.313 11.314l17.499 17.499a7.98 7.98 0 0 0 5.658 2.343 7.97 7.97 0 0 0 5.375-2.076l42.501-38.57a8 8 0 0 0-10.753-11.848z" fill="#28aa4a" opacity="1" data-original="#000000"></path></g></svg>