<svg xmlns="http://www.w3.org/2000/svg" version="1.1" xmlns:xlink="http://www.w3.org/1999/xlink" width="512" height="512" x="0" y="0" viewBox="0 0 512.001 512" style="enable-background:new 0 0 512 512" xml:space="preserve" class=""><g><path d="M206.602 85.59 241 51.19v53.793c0 8.293 6.71 15.004 15 15.004 8.293 0 15.004-6.71 15.004-15.004V51.191l34.398 34.399c5.86 5.86 15.352 5.86 21.211 0s5.86-15.352 0-21.211L266.625 4.39c-5.855-5.871-15.43-5.836-21.25 0l-59.988 59.988c-5.86 5.86-5.86 15.351 0 21.21s15.355 5.86 21.215 0zM64.375 325.613c5.86 5.86 15.355 5.86 21.215 0s5.86-15.351 0-21.215L51.19 270h53.793c8.293 0 15.004-6.707 15.004-15s-6.71-15-15.004-15H51.191l34.399-34.398c5.86-5.86 5.86-15.356 0-21.215s-15.352-5.86-21.211 0L4.39 244.375c-5.809 5.793-5.899 15.367 0 21.25zM407.016 270.004h53.793l-34.399 34.398c-5.86 5.86-5.86 15.352 0 21.211s15.356 5.86 21.215 0l59.988-59.988c5.805-5.79 5.895-15.367 0-21.25l-59.988-59.984c-5.86-5.864-15.355-5.864-21.215 0-5.86 5.859-5.86 15.351 0 21.21L460.81 240h-53.793c-8.293 0-15 6.71-15 15 0 8.293 6.707 15.004 15 15.004zM136.91 480.023h238.18c4.305 0 8.394-1.847 11.25-5.07a15.047 15.047 0 0 0 3.633-11.793C381.578 395.8 323.977 345.012 256 345.012S130.422 395.8 122.027 463.16c-.527 4.278.79 8.57 3.633 11.793a15.033 15.033 0 0 0 11.25 5.07zM256 315.008c41.36 0 75.008-33.653 75.008-75.008S297.359 164.992 256 164.992c-41.355 0-75.008 33.653-75.008 75.008s33.653 75.008 75.008 75.008zm0 0" fill="#28aa4a" opacity="1" data-original="#000000" class=""></path></g></svg>