<svg id="Layer_1" enable-background="new 0 0 512 512" viewBox="0 0 512 512" xmlns="http://www.w3.org/2000/svg"><path d="m218.46 93.01-3.59 35.59c-.21 2.12.72 4.2 2.44 5.46 1.73 1.26 3.99 1.5 5.94.64l32.75-14.42 32.74 14.41c.77.34 1.6.51 2.42.51 1.25 0 2.48-.39 3.53-1.15 1.73-1.25 2.66-3.33 2.44-5.46l-3.59-35.59 23.83-26.68c1.42-1.59 1.89-3.82 1.23-5.85s-2.35-3.56-4.43-4.01l-34.96-7.58-18.01-30.91c-1.09-1.84-3.07-2.97-5.2-2.97s-4.11 1.13-5.18 2.98l-18.01 30.9-34.96 7.58c-2.09.45-3.77 1.98-4.43 4.01s-.19 4.26 1.23 5.85zm19.47-32.96c1.64-.36 3.06-1.39 3.91-2.84l14.16-24.3 14.16 24.29c.85 1.45 2.27 2.49 3.91 2.84l27.48 5.96-18.73 20.98c-1.12 1.26-1.66 2.92-1.49 4.6l2.82 27.98-25.74-11.33c-.77-.34-1.59-.51-2.42-.51s-1.65.17-2.42.51l-25.74 11.33 2.82-27.98c.17-1.67-.37-3.34-1.49-4.6l-18.73-20.98zm-124.89 75.15c1.25 0 2.48-.39 3.53-1.15 1.73-1.25 2.66-3.33 2.44-5.46l-3.59-35.59 23.83-26.68c1.42-1.59 1.89-3.82 1.23-5.85s-2.35-3.56-4.43-4.01l-34.96-7.58-18.02-30.9c-1.08-1.85-3.05-2.98-5.18-2.98s-4.11 1.13-5.18 2.98l-18.01 30.9-34.96 7.58c-2.09.45-3.77 1.98-4.43 4.01s-.19 4.26 1.23 5.85l23.83 26.68-3.59 35.59c-.21 2.12.72 4.2 2.44 5.46 1.73 1.26 3.99 1.5 5.94.64l32.74-14.41 32.74 14.41c.76.35 1.58.51 2.4.51zm-32.74-26.97c-.77-.34-1.59-.51-2.42-.51s-1.65.17-2.42.51l-25.74 11.33 2.82-27.98c.17-1.67-.37-3.34-1.49-4.6l-18.72-20.97 27.48-5.96c1.64-.36 3.06-1.39 3.91-2.84l14.16-24.29 14.16 24.29c.85 1.45 2.27 2.49 3.91 2.84l27.48 5.96-18.73 20.98c-1.12 1.26-1.66 2.92-1.49 4.6l2.82 27.98zm416.41-47.75c-.66-2.03-2.35-3.56-4.43-4.01l-34.96-7.58-18.02-30.91c-1.08-1.84-3.05-2.98-5.18-2.98s-4.11 1.13-5.18 2.98l-18.01 30.9-34.96 7.58c-2.09.45-3.77 1.98-4.43 4.01s-.19 4.26 1.23 5.85l23.83 26.68-3.59 35.59c-.21 2.12.72 4.2 2.44 5.46 1.73 1.26 3.99 1.5 5.94.64l32.74-14.41 32.74 14.41c.77.34 1.6.51 2.42.51 1.25 0 2.48-.39 3.53-1.15 1.73-1.25 2.66-3.33 2.44-5.46l-3.59-35.59 23.83-26.68c1.4-1.59 1.87-3.81 1.21-5.84zm-35.77 26.51c-1.12 1.26-1.66 2.92-1.49 4.6l2.82 27.98-25.74-11.33c-.77-.34-1.59-.51-2.42-.51s-1.65.17-2.42.51l-25.74 11.33 2.82-27.98c.17-1.67-.37-3.34-1.49-4.6l-18.73-20.98 27.48-5.96c1.64-.36 3.06-1.39 3.91-2.84l14.16-24.29 14.16 24.29c.85 1.45 2.27 2.49 3.91 2.84l27.48 5.96zm-80.84 287.32c-19.64 0-37.13 9.28-48.37 23.68l-1.06-.34c-14.32-4.64-24.27-15.23-28.02-29.8l-4.26-16.53c12.3-11.14 19.77-26.36 21.01-42.78 3.83-1.65 6.83-4.93 8.1-9.16l7.02-23.56c.86-2.9.28-6.01-1.6-8.53-1.2-1.61-2.83-2.89-4.68-3.74 7.25-18.38 9.73-33.7 7.56-46.66-2.44-14.62-10.81-25.65-24.87-32.8-5.52-13.88-15.72-23.82-29.63-28.81-13.11-4.7-28.71-4.54-43.93.46-20.04 6.58-37.31 20.87-47.37 39.2-10.85 19.75-13.23 43.22-7 68.25-2.2.82-4.16 2.24-5.54 4.09-1.88 2.52-2.46 5.63-1.6 8.53l7.02 23.56c1.26 4.22 4.25 7.5 8.09 9.15 1.27 17.08 9.22 32.73 22.34 43.96l-3.95 15.36c-3.75 14.57-13.7 25.16-28.02 29.8l-50.9 16.51c-16.1 5.22-27.76 16.99-32.82 33.15l-13.13 41.91c-.99 3.16.77 6.53 3.93 7.52.6.19 1.2.28 1.8.28 2.55 0 4.92-1.64 5.72-4.21l13.13-41.91c3.92-12.52 12.59-21.27 25.07-25.32l50.9-16.51c18.09-5.87 31.19-19.8 35.94-38.22l4.92-19.1c.6-2.34-.26-4.82-2.19-6.28-13.27-10.04-20.89-25.25-20.91-41.74 0-3.31-2.72-5.99-6.03-5.99-1.16 0-2.05-.66-2.38-1.77l-6.42-21.54h2.72c1.91 0 3.7-.91 4.83-2.44s1.47-3.51.9-5.33c-16.36-52.89 11.71-88.65 44.71-99.49 22.16-7.28 50.19-3.1 59.38 23.27.54 1.54 1.68 2.8 3.16 3.48 8.73 4.02 35.29 16.24 10.57 72.09-.82 1.86-.65 4 .46 5.7s3 2.73 5.03 2.73h2.72l-6.45 21.52c-.33 1.11-1.22 1.77-2.41 1.77-3.31 0-6 2.68-6 5.99-.02 15.89-7.2 30.75-19.69 40.79-1.84 1.48-2.64 3.89-2.05 6.17l5.19 20.16c4.58 17.8 16.98 31.38 34.13 37.57-4.09 8.21-6.4 17.46-6.4 27.24 0 33.83 27.52 61.35 61.35 61.35 12.59 0 24.3-3.82 34.04-10.34l1.92 6.14c.8 2.57 3.17 4.21 5.72 4.21.59 0 1.2-.09 1.8-.28 3.16-.99 4.92-4.36 3.93-7.52l-3.41-10.88c10.72-11.05 17.34-26.1 17.34-42.68-.01-33.81-27.53-61.33-61.36-61.33zm-49.35 61.34c0-27.21 22.14-49.35 49.35-49.35s49.35 22.14 49.35 49.35-22.14 49.35-49.35 49.35-49.35-22.14-49.35-49.35zm75.54-19.16c2.34 2.34 2.34 6.14 0 8.49l-29.85 29.85c-1.17 1.17-2.71 1.76-4.24 1.76-1.54 0-3.07-.59-4.24-1.76l-14.04-14.04c-2.34-2.34-2.34-6.14 0-8.49 2.34-2.34 6.14-2.34 8.49 0l9.8 9.8 25.6-25.6c2.34-2.36 6.14-2.35 8.48-.01z"/></svg>