<svg xmlns="http://www.w3.org/2000/svg" version="1.1" xmlns:xlink="http://www.w3.org/1999/xlink" width="512" height="512" x="0" y="0" viewBox="0 0 64 64" style="enable-background:new 0 0 512 512" xml:space="preserve" class=""><g><path d="M19 46c-2.757 0-5 2.243-5 5s2.243 5 5 5 5-2.243 5-5-2.243-5-5-5zm0 8c-1.654 0-3-1.346-3-3s1.346-3 3-3 3 1.346 3 3-1.346 3-3 3z" fill="#28aa4a" opacity="1" data-original="#000000"></path><path d="M29 54a1 1 0 0 0 1-1v-4a1 1 0 0 0-1-1l-1.538-.044a8.976 8.976 0 0 0-.347-.828l1.077-1.077a.999.999 0 0 0 0-1.414l-2.829-2.829a.999.999 0 0 0-1.414 0l-1.12 1.056a8.796 8.796 0 0 0-.83-.339V41a1 1 0 0 0-1-1h-4a1 1 0 0 0-1 1l-.044 1.538c-.268.097-.53.205-.828.347l-1.077-1.077a.999.999 0 0 0-1.414 0l-2.829 2.829a.999.999 0 0 0 0 1.414l1.056 1.12c-.12.256-.229.518-.339.83H9a1 1 0 0 0-1 1v4a1 1 0 0 0 1 1l1.538.044c.097.268.205.53.347.828L9.808 55.95a.999.999 0 0 0 0 1.414l2.829 2.829a.999.999 0 0 0 1.414 0l1.12-1.056c.256.12.518.229.83.339V61a1 1 0 0 0 1 1h4a1 1 0 0 0 1-1l.044-1.538c.268-.097.53-.205.828-.347l1.077 1.077a.999.999 0 0 0 1.414 0l2.829-2.829a.999.999 0 0 0 0-1.414l-1.056-1.12c.12-.256.229-.518.339-.83H29zm-3.299 2.287.37.37-1.415 1.415-.37-.37c-.602-.604-1.509-.75-2.308-.375a6.654 6.654 0 0 1-.611.253c-.83.297-1.367 1.042-1.367 1.896V60h-2v-.524c0-.854-.537-1.599-1.367-1.896a7.02 7.02 0 0 1-.612-.253c-.799-.376-1.706-.229-2.308.375l-.37.37-1.415-1.415.37-.37c.604-.603.751-1.509.375-2.308a6.654 6.654 0 0 1-.253-.611C12.123 52.537 11.378 52 10.524 52H10v-2h.524c.854 0 1.599-.537 1.896-1.367a7.02 7.02 0 0 1 .253-.612c.376-.799.229-1.705-.375-2.308l-.37-.37 1.415-1.415.37.37c.603.604 1.51.751 2.308.375.199-.094.403-.179.611-.253.831-.297 1.368-1.042 1.368-1.896V42h2v.524c0 .854.537 1.599 1.367 1.896.209.075.414.16.612.253.8.377 1.706.229 2.308-.375l.37-.37 1.415 1.415-.37.37c-.604.603-.751 1.509-.375 2.308.094.199.179.403.253.611.297.831 1.042 1.368 1.896 1.368H28v2h-.524c-.854 0-1.599.537-1.896 1.367a7.02 7.02 0 0 1-.253.612c-.376.799-.229 1.705.374 2.308zM47 39c-4.411 0-8 3.589-8 8s3.589 8 8 8 8-3.589 8-8-3.589-8-8-8zm0 14c-3.309 0-6-2.691-6-6s2.691-6 6-6 6 2.691 6 6-2.691 6-6 6z" fill="#28aa4a" opacity="1" data-original="#000000"></path><path d="m61 43-1.651-.027a12.782 12.782 0 0 0-.784-1.881l1.164-1.163a1 1 0 0 0 0-1.414l-4.243-4.243a1.03 1.03 0 0 0-1.414 0l-1.187 1.148a12.759 12.759 0 0 0-1.884-.774V33a1 1 0 0 0-1-1h-6a1 1 0 0 0-1 1l-.027 1.651c-.637.208-1.262.466-1.881.784l-1.163-1.164a1 1 0 0 0-1.414 0l-4.243 4.243a1 1 0 0 0 0 1.414l1.148 1.187c-.302.595-.561 1.22-.774 1.884H33a1 1 0 0 0-1 1v6a1 1 0 0 0 1 1l1.651.027c.208.637.466 1.262.784 1.88l-1.164 1.164a.999.999 0 0 0 0 1.414l4.243 4.243a.999.999 0 0 0 1.414 0l1.187-1.148c.595.302 1.22.561 1.884.774V61a1 1 0 0 0 1 1h6a1 1 0 0 0 1-1l.027-1.651a12.726 12.726 0 0 0 1.88-.784l1.164 1.164a.999.999 0 0 0 1.414 0l4.243-4.243a.999.999 0 0 0 0-1.414l-1.148-1.187c.302-.595.561-1.22.774-1.884H61a1 1 0 0 0 1-1v-6A1 1 0 0 0 61 43zm-1 6h-.646c-.867 0-1.633.566-1.908 1.408a10.988 10.988 0 0 1-.649 1.57 2.013 2.013 0 0 0 .354 2.344l.457.457-2.829 2.829-.457-.457a2.012 2.012 0 0 0-2.344-.354c-.503.256-1.031.475-1.57.65A2.012 2.012 0 0 0 49 59.354V60h-4v-.646c0-.867-.566-1.633-1.408-1.908a10.988 10.988 0 0 1-1.57-.649 2.01 2.01 0 0 0-2.344.354l-.457.457-2.829-2.829.457-.457a2.016 2.016 0 0 0 .354-2.344 10.878 10.878 0 0 1-.65-1.57A2.012 2.012 0 0 0 34.646 49H34v-4h.646c.867 0 1.633-.566 1.908-1.408.175-.539.394-1.067.649-1.57a2.013 2.013 0 0 0-.354-2.344l-.456-.456 2.828-2.828.456.456a2.013 2.013 0 0 0 2.344.354 10.878 10.878 0 0 1 1.57-.65A2.014 2.014 0 0 0 45 34.646V34h4v.646c0 .867.566 1.633 1.408 1.908.539.175 1.067.394 1.57.649a2.017 2.017 0 0 0 2.344-.354l.456-.456 2.828 2.828-.456.456a2.015 2.015 0 0 0-.354 2.344c.256.503.475 1.031.65 1.57A2.014 2.014 0 0 0 59.354 45H60zM14 27v11h2V28h3a1 1 0 0 0 .747-1.664l-8-9c-.38-.427-1.115-.427-1.495 0l-8 9A1 1 0 0 0 3 28h3v15h2V27a1 1 0 0 0-1-1H5.227L11 19.505 16.773 26H15a1 1 0 0 0-1 1zM35 19v14h2V20h3a1 1 0 0 0 .747-1.664l-8-9c-.38-.427-1.115-.427-1.495 0l-8 9A1.002 1.002 0 0 0 24 20h3v20h2V19a1 1 0 0 0-1-1h-1.773L32 11.505 37.773 18H36a1 1 0 0 0-1 1zM56 12v16h2V13h3a1 1 0 0 0 .747-1.664l-8-9c-.38-.427-1.115-.427-1.495 0l-8 9A1.002 1.002 0 0 0 45 13h3v17h2V12a1 1 0 0 0-1-1h-1.773L53 4.505 58.773 11H57a1 1 0 0 0-1 1z" fill="#28aa4a" opacity="1" data-original="#000000"></path></g></svg>