<svg xmlns="http://www.w3.org/2000/svg" version="1.1" xmlns:xlink="http://www.w3.org/1999/xlink" width="512" height="512" x="0" y="0" viewBox="0 0 512 512" style="enable-background:new 0 0 512 512" xml:space="preserve" class=""><g><path d="M362 0H150C67.16 0 0 67.16 0 150v212c0 82.84 67.16 150 150 150h212c82.84 0 150-67.16 150-150V150C512 67.16 444.84 0 362 0zm100 362c0 55.14-44.86 100-100 100H150c-55.14 0-100-44.86-100-100V150C50 94.86 94.86 50 150 50h212c55.14 0 100 44.86 100 100zm-128.58-61.74c0 9.15-1.75 17.74-5.24 25.75-3.5 8.02-8.25 15.04-14.27 21.05-6.01 6.02-13.03 10.77-21.05 14.27s-16.61 5.24-25.76 5.24h-88.52v-44.26h88.52c3.08 0 5.96-.56 8.64-1.7 2.67-1.13 5.01-2.7 7.02-4.7 2-2 3.57-4.34 4.7-7.02 1.13-2.67 1.7-5.55 1.7-8.64s-.57-5.96-1.7-8.64c-1.13-2.67-2.7-5.01-4.7-7.02s-4.34-3.57-7.02-4.7c-2.67-1.13-5.55-1.7-8.64-1.7h-60.3v-44.26h60.3c3.08 0 5.96-.56 8.64-1.7 2.67-1.13 5.01-2.7 7.02-4.7 2-2.01 3.57-4.37 4.7-7.09s1.7-5.63 1.7-8.71-.57-5.96-1.7-8.64c-1.13-2.67-2.7-5.01-4.7-7.02s-4.34-3.57-7.02-4.7c-2.67-1.13-5.55-1.7-8.64-1.7h-88.52v-44.26h88.52c9.15 0 17.74 1.75 25.76 5.24 8.02 3.5 15.04 8.25 21.05 14.27 6.02 6.01 10.77 13.03 14.27 21.05s5.24 16.61 5.24 25.75c0 8.12-1.49 16.02-4.47 23.67-2.98 7.66-7.2 14.52-12.65 20.59 5.45 6.07 9.66 12.93 12.65 20.59 2.98 7.66 4.47 15.55 4.47 23.67z" data-name="3" fill="#28aa4a" opacity="1" data-original="#000000"></path></g></svg>