<svg xmlns="http://www.w3.org/2000/svg" version="1.1" xmlns:xlink="http://www.w3.org/1999/xlink" width="512" height="512" x="0" y="0" viewBox="0 0 26 26" style="enable-background:new 0 0 512 512" xml:space="preserve" class=""><g><path d="M19.244 1H6.756A5.762 5.762 0 0 0 1 6.756v12.488A5.762 5.762 0 0 0 6.756 25h12.488A5.762 5.762 0 0 0 25 19.244V6.756A5.762 5.762 0 0 0 19.244 1zM23 19.244A3.76 3.76 0 0 1 19.244 23H6.756A3.76 3.76 0 0 1 3 19.244V6.756A3.76 3.76 0 0 1 6.756 3h12.488A3.76 3.76 0 0 1 23 6.756z" fill="#28aa4a" opacity="1" data-original="#000000" class=""></path><path d="M14.592 6.499H9.738a1 1 0 1 0 0 2h4.854c.37 0 .67.3.67.67v2.16c0 .37-.3.671-.67.671h-3.184a2.673 2.673 0 0 0-2.67 2.67v3.831a1 1 0 0 0 1 1h6.525a1 1 0 1 0 0-2h-5.525v-2.83c0-.37.301-.671.67-.671h3.184a2.674 2.674 0 0 0 2.67-2.67V9.17a2.674 2.674 0 0 0-2.67-2.671z" fill="#28aa4a" opacity="1" data-original="#000000" class=""></path></g></svg>