<svg xmlns="http://www.w3.org/2000/svg" version="1.1" xmlns:xlink="http://www.w3.org/1999/xlink" width="512" height="512" x="0" y="0" viewBox="0 0 512 512" style="enable-background:new 0 0 512 512" xml:space="preserve" class=""><g><path d="M362 0H150C67.16 0 0 67.16 0 150v212c0 82.84 67.16 150 150 150h212c82.84 0 150-67.16 150-150V150C512 67.16 444.84 0 362 0zm100 362c0 55.14-44.86 100-100 100H150c-55.14 0-100-44.86-100-100V150C50 94.86 94.86 50 150 50h212c55.14 0 100 44.86 100 100zm-140.03-78.83h25.29v44.43h-25.29v52.81h-57.59V327.6h-96.22l-3.42-35.21 99.63-160.3v-.51h57.59v151.59zm-102.37 0h44.78v-76.56l-3.59 5.81z" data-name="4" fill="#28aa4a" opacity="1" data-original="#000000" class=""></path></g></svg>