<svg xmlns="http://www.w3.org/2000/svg" version="1.1" xmlns:xlink="http://www.w3.org/1999/xlink" width="512" height="512" x="0" y="0" viewBox="0 0 60 60" style="enable-background:new 0 0 512 512" xml:space="preserve"><g><path d="M57 0H3a3 3 0 0 0-3 3v35a3 3 0 0 0 3 3h9.949l-4.4 1.047a2.006 2.006 0 0 0 0 3.906L16 47.725V56a4 4 0 0 0 4 4h20a4 4 0 0 0 4-4v-8.275l4-.951V52a1 1 0 0 0 2 0v-5.7l1.451-.345a2.006 2.006 0 0 0 0-3.906L47.049 41H57a3 3 0 0 0 3-3V3a3 3 0 0 0-3-3ZM3 2h54a1 1 0 0 1 1 1v24H2V3a1 1 0 0 1 1-1Zm39 54a2 2 0 0 1-2 2H20a2 2 0 0 1-2-2v-7.8l11.517 2.738a1.946 1.946 0 0 0 .955 0L42 48.2Zm8.986-11.992L29.991 49 9.012 43.992l21-4.989 21 5a.1.1 0 0 1-.026.005ZM57 39H38.639l-8.156-1.939a1.93 1.93 0 0 0-.955 0L21.36 39H3a1 1 0 0 1-1-1v-9h56v9a1 1 0 0 1-1 1Z" fill="#ffffff" opacity="1" data-original="#000000"></path><path d="M30 24a10 10 0 1 0-10-10 10.011 10.011 0 0 0 10 10Zm0-18a8 8 0 1 1-8 8 8.009 8.009 0 0 1 8-8Z" fill="#ffffff" opacity="1" data-original="#000000"></path><path d="M27.116 18.719a2.112 2.112 0 0 0 2.146-.022l4.66-2.778a2.247 2.247 0 0 0 0-3.838L29.261 9.3a2.106 2.106 0 0 0-2.145-.022A2.232 2.232 0 0 0 26 11.222v5.556a2.232 2.232 0 0 0 1.116 1.941Zm.884-7.5a.216.216 0 0 1 .1-.2.135.135 0 0 1 .068-.02.128.128 0 0 1 .066.021L32.9 13.8a.247.247 0 0 1 0 .4l-4.659 2.779a.119.119 0 0 1-.135 0 .216.216 0 0 1-.1-.2ZM5.707 31.293a1 1 0 0 0-1.414 1.414L5.586 34l-1.293 1.293a1 1 0 1 0 1.414 1.414l2-2a1 1 0 0 0 0-1.414ZM55 33H20v-1a1 1 0 0 0-2 0v1h-6a1 1 0 0 0 0 2h6v1a1 1 0 0 0 2 0v-1h35a1 1 0 0 0 0-2Z" fill="#ffffff" opacity="1" data-original="#000000"></path></g></svg>