<svg xmlns="http://www.w3.org/2000/svg" version="1.1" xmlns:xlink="http://www.w3.org/1999/xlink" width="512" height="512" x="0" y="0" viewBox="0 0 128 128" style="enable-background:new 0 0 512 512" xml:space="preserve" class=""><g><path d="M14.536 90h4.3a49 49 0 1 1 90.329 0h4.3a53 53 0 1 0-98.93 0Z" fill="#28aa4a" opacity="1" data-original="#000000"></path><path d="M122 94H94V82a24.008 24.008 0 0 0-11.965-20.751 23.19 23.19 0 0 1-2.85 3.004A20.008 20.008 0 0 1 90 82v12H38V82a20.008 20.008 0 0 1 10.815-17.747 23.19 23.19 0 0 1-2.85-3.004A24.008 24.008 0 0 0 34 82v12H6a6.007 6.007 0 0 0-6 6v22a6.007 6.007 0 0 0 6 6h116a6.007 6.007 0 0 0 6-6v-22a6.007 6.007 0 0 0-6-6Zm2 28a2.002 2.002 0 0 1-2 2H6a2.002 2.002 0 0 1-2-2v-22a2.002 2.002 0 0 1 2-2h116a2.002 2.002 0 0 1 2 2Z" fill="#28aa4a" opacity="1" data-original="#000000"></path><path d="m69.604 105.866-1.345-.206-.638-1.36a4 4 0 0 0-7.242 0l-.638 1.36-1.345.206a4 4 0 0 0-2.259 6.747l1.09 1.117-.265 1.626a4 4 0 0 0 5.883 4.145l1.155-.639 1.155.639a4 4 0 0 0 5.883-4.145l-.265-1.626 1.09-1.117a4 4 0 0 0-2.259-6.747ZM67.09 116 64 114.292 60.91 116l.59-3.618-2.5-2.562 3.455-.528L64 106l1.545 3.292 3.455.528-2.5 2.562ZM92.604 105.866l-1.345-.206-.638-1.36a4 4 0 0 0-7.242 0l-.638 1.36-1.345.206a4 4 0 0 0-2.259 6.747l1.09 1.117-.265 1.626a4 4 0 0 0 5.883 4.145l1.155-.639 1.155.639a4 4 0 0 0 5.883-4.145l-.265-1.626 1.09-1.117a4 4 0 0 0-2.259-6.747ZM90.09 116 87 114.292 83.91 116l.59-3.618-2.5-2.562 3.455-.528L87 106l1.545 3.292 3.455.528-2.5 2.562ZM115.604 105.866l-1.345-.206-.638-1.36a4 4 0 0 0-7.242 0l-.638 1.36-1.345.206a4 4 0 0 0-2.259 6.747l1.09 1.117-.265 1.626a4 4 0 0 0 5.883 4.145l1.155-.639 1.155.639a4 4 0 0 0 5.883-4.145l-.265-1.626 1.09-1.117a4 4 0 0 0-2.259-6.747ZM113.09 116l-3.09-1.708-3.09 1.708.59-3.618-2.5-2.562 3.455-.528L110 106l1.545 3.292 3.455.528-2.5 2.562ZM23.604 105.866l-1.345-.206-.638-1.36a4 4 0 0 0-7.242 0l-.638 1.36-1.345.206a4 4 0 0 0-2.259 6.747l1.09 1.117-.265 1.626a4 4 0 0 0 5.883 4.145l1.155-.639 1.155.639a4 4 0 0 0 5.883-4.145l-.265-1.626 1.09-1.117a4 4 0 0 0-2.259-6.747ZM21.09 116 18 114.292 14.91 116l.59-3.618-2.5-2.562 3.455-.528L18 106l1.545 3.292 3.455.528-2.5 2.562ZM46.604 105.866l-1.345-.206-.638-1.36a4 4 0 0 0-7.242 0l-.638 1.36-1.345.206a4 4 0 0 0-2.259 6.747l1.09 1.117-.265 1.626a4 4 0 0 0 5.883 4.145l1.155-.639 1.155.639a4 4 0 0 0 5.883-4.145l-.265-1.626 1.09-1.117a4 4 0 0 0-2.259-6.747ZM44.09 116 41 114.292 37.91 116l.59-3.618-2.5-2.562 3.455-.528L41 106l1.545 3.292 3.455.528-2.5 2.562ZM45 47a19 19 0 1 0 19-19 19.022 19.022 0 0 0-19 19Zm34 0a15 15 0 1 1-15-15 15.017 15.017 0 0 1 15 15ZM64 14a2 2 0 0 0 2-2V2a2 2 0 0 0-4 0v10a2 2 0 0 0 2 2ZM110 34.978a1.991 1.991 0 0 0 1.414-.564l8-8a2 2 0 0 0-2.828-2.828l-8 8A1.978 1.978 0 0 0 110 34.978ZM16.586 34.414a2.03 2.03 0 0 0 2.828 0 2 2 0 0 0 0-2.828l-8-8a2 2 0 0 0-2.828 2.828Z" fill="#28aa4a" opacity="1" data-original="#000000"></path></g></svg>