<svg xmlns="http://www.w3.org/2000/svg" version="1.1" xmlns:xlink="http://www.w3.org/1999/xlink" width="512" height="512" x="0" y="0" viewBox="0 0 512 512" style="enable-background:new 0 0 512 512" xml:space="preserve" class=""><g><path d="M426.324 332.848a99.565 99.565 0 0 0-18.394-14.508V72.909a24.543 24.543 0 0 0-24.515-24.515h-20.647V33.515A24.542 24.542 0 0 0 338.253 9H81a24.543 24.543 0 0 0-24.519 24.515v348.3A24.543 24.543 0 0 0 81 406.33h20.648v14.879a24.542 24.542 0 0 0 24.514 24.515h139.421a99.7 99.7 0 1 0 160.741-112.876zM81 392.33a10.527 10.527 0 0 1-10.515-10.515v-348.3A10.527 10.527 0 0 1 81 23h257.253a10.527 10.527 0 0 1 10.515 10.515v14.879h-222.61a24.543 24.543 0 0 0-24.514 24.515V392.33zm45.162 39.394a10.526 10.526 0 0 1-10.514-10.515v-348.3a10.525 10.525 0 0 1 10.514-10.515h257.253a10.526 10.526 0 0 1 10.515 10.515v238.313a99.84 99.84 0 0 0-128.063 49.115H140.336a7 7 0 0 0 0 14h120.1a99.481 99.481 0 0 0-4.012 21.937H140.336a7 7 0 0 0 0 14h116.078a99.589 99.589 0 0 0 3.846 21.45zm290.268 32.183a85.634 85.634 0 1 1 0-121.161 85.673 85.673 0 0 1 0 121.16zM225.836 272.844h122a7 7 0 0 1 0 14h-122a7 7 0 0 1 0-14zm58.488 50.8a7 7 0 0 1-7 7h-51.488a7 7 0 0 1 0-14h51.488a7 7 0 0 1 7 7.001zm114.4 49.313a7 7 0 0 1 0 9.9L347.885 433.7a7 7 0 0 1-9.9 0l-25.02-25.02a7 7 0 1 1 9.9-9.9l20.072 20.071 45.89-45.889a7 7 0 0 1 9.898-.004zm-134.771-209.04h67.841a7 7 0 0 0 6.991-7.354 78.63 78.63 0 0 0-74.477-74.478 7 7 0 0 0-7.355 6.991v67.841a7 7 0 0 0 7 7zm7-67.062a64.335 64.335 0 0 1 53.062 53.062h-53.062zM249.4 251.023a78.547 78.547 0 0 0 78.522-74.58 7 7 0 0 0-6.991-7.354h-68.22v-68.22a7 7 0 0 0-7.355-6.991 78.625 78.625 0 0 0 4.044 157.145zm0-14a64.213 64.213 0 0 1-28.647-6.718l29.347-47.216h63.049a64.57 64.57 0 0 1-63.749 53.934zm-10.686-128.372V172.4a10.728 10.728 0 0 0 .216 2.143l-29.965 48.213a64.595 64.595 0 0 1 29.749-114.1zm-98.378 227.392h59a7 7 0 0 0 7-7v-58a7 7 0 0 0-7-7h-59a7 7 0 0 0-7 7v58a7 7 0 0 0 7 7zm7-58h45v44h-45z" fill="#28aa4a" opacity="1" data-original="#000000"></path></g></svg>