<svg xmlns="http://www.w3.org/2000/svg" version="1.1" xmlns:xlink="http://www.w3.org/1999/xlink" width="512" height="512" x="0" y="0" viewBox="0 0 512 512" style="enable-background:new 0 0 512 512" xml:space="preserve"><circle r="256" cx="256" cy="256" fill="#ffffff" shape="circle"></circle><g transform="matrix(0.7,0,0,0.7,76.80030212402346,76.80000000000001)"><path d="M489.856 405.93H472.98v-252.4c0-18.123-14.742-32.867-32.865-32.867h-43.682V51.155c0-9.926-8.075-18.004-18.002-18.004h-244.78c-9.929 0-18.004 8.078-18.004 18.004v69.508H71.884c-18.123 0-32.865 14.744-32.865 32.867v252.4H22.144c-7.883 0-14.295 6.415-14.295 14.298v16.094c0 23.45 19.078 42.527 42.528 42.527h411.248c23.45 0 42.528-19.078 42.528-42.527v-16.094c-.001-7.884-6.414-14.298-14.297-14.298zm-93.423-247.461 29.9.007c4.916.005 8.917 4.006 8.914 8.919l-.069 201.557c-.002 4.913-4.001 8.909-8.914 8.909h-29.831zM125.381 51.155c0-4.562 3.711-8.273 8.27-8.273h244.778c4.562 0 8.273 3.711 8.273 8.273v41.553H125.381zm-.002 51.285h261.323v275.421H125.379zm-76.628 51.09c0-12.758 10.378-23.136 23.134-23.136h43.763v18.281l-29.893-.006h-.012c-10.294 0-18.638 8.336-18.638 18.641v201.637c0 10.283 8.365 18.646 18.646 18.646H426.265c10.278 0 18.643-8.363 18.646-18.641l.069-201.557c.002-10.278-8.358-18.646-18.643-18.65l-29.902-.007v-18.344h43.682c12.756 0 23.134 10.378 23.134 23.136v252.4h-414.5zm66.896 4.876v219.455H85.75c-4.916 0-8.914-4.001-8.914-8.914V167.31a8.904 8.904 0 0 1 8.909-8.909h.007zM304.063 415.68c-2.3 12.644-13.393 22.262-26.688 22.262h-42.751c-13.295 0-24.388-9.617-26.688-22.262zm190.357 20.641c0 18.085-14.711 32.796-32.796 32.796H50.376c-18.085 0-32.796-14.711-32.796-32.796v-16.094a4.57 4.57 0 0 1 4.564-4.566h21.647c.033.001.061.019.094.019h154.242c2.394 18.026 17.827 31.993 36.497 31.993h42.751c18.67 0 34.103-13.967 36.497-31.993l175.984-.019a4.57 4.57 0 0 1 4.564 4.566z" fill="#38aaeb" opacity="1" data-original="#000000"></path><path d="M376.168 437.524h-16.431a4.865 4.865 0 0 0-4.866 4.866 4.865 4.865 0 0 0 4.866 4.866h16.431a4.865 4.865 0 0 0 4.866-4.866 4.865 4.865 0 0 0-4.866-4.866zM417.878 437.524h-16.431a4.865 4.865 0 0 0-4.866 4.866 4.865 4.865 0 0 0 4.866 4.866h16.431a4.865 4.865 0 0 0 4.866-4.866 4.865 4.865 0 0 0-4.866-4.866zM459.586 437.524h-16.431a4.865 4.865 0 0 0-4.866 4.866 4.865 4.865 0 0 0 4.866 4.866h16.431a4.865 4.865 0 0 0 4.866-4.866 4.865 4.865 0 0 0-4.866-4.866zM277.39 51.398c-9.026 0-16.37 7.341-16.37 16.37 0 9.057 7.344 16.422 16.37 16.422s16.367-7.365 16.367-16.422c0-9.029-7.342-16.37-16.367-16.37zm0 23.059c-3.661 0-6.638-3.003-6.638-6.69a6.646 6.646 0 0 1 6.638-6.638c3.659 0 6.636 2.979 6.636 6.638-.001 3.687-2.978 6.69-6.636 6.69zM315.591 51.398c-9.026 0-16.37 7.341-16.37 16.37 0 9.057 7.344 16.422 16.37 16.422s16.367-7.365 16.367-16.422c0-9.029-7.341-16.37-16.367-16.37zm0 23.059c-3.661 0-6.638-3.003-6.638-6.69a6.646 6.646 0 0 1 6.638-6.638c3.659 0 6.636 2.979 6.636 6.638 0 3.687-2.977 6.69-6.636 6.69zM353.792 51.398c-9.026 0-16.37 7.341-16.37 16.37 0 9.057 7.344 16.422 16.37 16.422s16.367-7.365 16.367-16.422c0-9.029-7.341-16.37-16.367-16.37zm0 23.059c-3.661 0-6.638-3.003-6.638-6.69a6.646 6.646 0 0 1 6.638-6.638c3.659 0 6.636 2.979 6.636 6.638 0 3.687-2.977 6.69-6.636 6.69zM221.417 205.846a4.863 4.863 0 0 0-6.88 0l-32.986 32.986a4.863 4.863 0 0 0 0 6.88l32.986 32.986a4.863 4.863 0 0 0 6.88 0 4.863 4.863 0 0 0 0-6.88l-29.546-29.546 29.546-29.546a4.863 4.863 0 0 0 0-6.88zM297.546 205.846a4.863 4.863 0 0 0-6.88 0 4.863 4.863 0 0 0 0 6.88l29.546 29.546-29.546 29.546a4.863 4.863 0 0 0 0 6.88 4.863 4.863 0 0 0 6.88 0l32.986-32.986a4.863 4.863 0 0 0 0-6.88zM269.994 182.558c-2.618-.599-5.234 1.012-5.845 3.63l-25.69 109.954a4.864 4.864 0 1 0 9.475 2.215l25.69-109.954a4.865 4.865 0 0 0-3.63-5.845z" fill="#38aaeb" opacity="1" data-original="#000000"></path></g></svg>