<svg xmlns="http://www.w3.org/2000/svg" version="1.1" xmlns:xlink="http://www.w3.org/1999/xlink" width="512" height="512" x="0" y="0" viewBox="0 0 512 512" style="enable-background:new 0 0 512 512" xml:space="preserve" class=""><g><path d="M248 45.069V16a8 8 0 0 1 16 0v29.069a8 8 0 0 1-16 0zm-92.009 28.942a7.999 7.999 0 0 0 10.929 2.929 8.002 8.002 0 0 0 2.929-10.929l-14.534-25.176a8.002 8.002 0 0 0-13.858 8zm-57.21 57.21-25.175-14.534a7.998 7.998 0 0 0-10.928 2.928 8 8 0 0 0 2.928 10.928l25.175 14.534a7.998 7.998 0 0 0 10.928-2.928 8 8 0 0 0-2.928-10.928zM345.08 76.938a7.998 7.998 0 0 0 10.928-2.928l14.534-25.175a8 8 0 0 0-2.928-10.928 7.998 7.998 0 0 0-10.928 2.928L342.152 66.01a8 8 0 0 0 2.928 10.928zm104.241 42.676a7.999 7.999 0 0 0-10.928-2.928l-25.176 14.535a8 8 0 0 0 4.008 14.929 7.969 7.969 0 0 0 3.992-1.073l25.176-14.535a7.998 7.998 0 0 0 2.928-10.928zM226.989 298.457h-38.36a8 8 0 0 1-8-8V165.368a8 8 0 0 1 8-8h30.36v-3.247c0-17.747 14.438-32.185 32.185-32.185s32.185 14.438 32.185 32.185v3.247h30.36a8 8 0 0 1 8 8v30.359h3.247c17.747 0 32.185 14.438 32.185 32.185s-14.438 32.185-32.185 32.185h-3.247v30.36a8 8 0 0 1-8 8h-38.36a8 8 0 0 1-8-8V279.21c0-8.924-7.261-16.184-16.185-16.184s-16.185 7.26-16.185 16.184v11.247a8 8 0 0 1-8 8zm-8-19.247c0-17.746 14.438-32.184 32.185-32.184s32.185 14.438 32.185 32.184v3.247h22.36v-30.36a8 8 0 0 1 8-8h11.247c8.924 0 16.185-7.26 16.185-16.184 0-8.925-7.261-16.186-16.185-16.186h-11.247a8 8 0 0 1-8-8v-30.359h-30.36a8 8 0 0 1-8-8v-11.247c0-8.924-7.261-16.185-16.185-16.185s-16.185 7.261-16.185 16.185v11.247a8 8 0 0 1-8 8h-30.36v109.089h22.36zm212.114 95.602v21.195a8 8 0 0 1-5.126 7.466l-9.184 3.535a74.675 74.675 0 0 1-5.817 14.032l3.997 9a8 8 0 0 1-1.654 8.904l-14.987 14.987a8.001 8.001 0 0 1-8.904 1.654l-8.995-3.995a74.713 74.713 0 0 1-14.038 5.82l-3.534 9.179a7.998 7.998 0 0 1-7.466 5.126H334.2a8 8 0 0 1-7.466-5.127l-3.534-9.183a74.602 74.602 0 0 1-11.395-4.479 27.856 27.856 0 0 1-14.736 9.937v13.083c0 15.469-12.585 28.054-28.054 28.054h-26.027c-15.469 0-28.054-12.585-28.054-28.054v-13.08c-11.844-3.285-20.566-14.155-20.566-27.031v-13.224c-11.583-3.453-20.055-14.196-20.055-26.885v-19.779c-3.088-52.018-16.559-75.047-28.447-95.365-10.941-18.698-21.275-36.359-21.275-70.386 0-72.46 58.951-131.411 131.411-131.411s131.41 58.951 131.41 131.411c0 34.025-10.334 51.687-21.274 70.385-3.421 5.846-6.918 11.829-10.248 18.558a7.984 7.984 0 0 1 6.972 5.089l3.534 9.183a74.688 74.688 0 0 1 14.033 5.818l9-3.997a8.002 8.002 0 0 1 8.903 1.654l14.987 14.986a8 8 0 0 1 1.655 8.904l-3.996 8.996a74.643 74.643 0 0 1 5.819 14.038l9.18 3.533a8.008 8.008 0 0 1 5.126 7.469zm-271.429-102.31c12.222 20.888 26 44.438 30.099 95.168h73.163c.224-.112.443-.232.68-.323l9.182-3.535a74.623 74.623 0 0 1 5.819-14.034l-3.997-8.998a8 8 0 0 1 1.654-8.904l14.987-14.987a7.995 7.995 0 0 1 8.904-1.654l9 3.997a74.64 74.64 0 0 1 14.032-5.818l3.535-9.184a8 8 0 0 1 7.466-5.126h4.042c4.578-10.346 9.59-18.918 14.086-26.601 10.662-18.223 19.084-32.616 19.084-62.305 0-63.638-51.772-115.411-115.41-115.411s-115.411 51.773-115.411 115.41c0 29.689 8.422 44.082 19.085 62.305zm42.691 135.278h70.684c-.081-.259-.176-.513-.253-.773l-9.18-3.533a7.999 7.999 0 0 1-5.127-7.466V383.67h-68.178v12.057c.001 6.646 5.408 12.053 12.054 12.053zm20.056 40.11h62.798l-8.945-8.945a8 8 0 0 1-1.654-8.904l2.781-6.26h-67.034v12.056c-.001 6.645 5.406 12.053 12.054 12.053zm58.646 28.056V463.89h-50.135v12.057c0 6.646 5.407 12.054 12.054 12.054h26.027c6.647-.001 12.054-5.408 12.054-12.055zm134.036-95.641-7.847-3.021a7.995 7.995 0 0 1-4.909-5.614 58.73 58.73 0 0 0-7.144-17.23 8.001 8.001 0 0 1-.5-7.442l3.417-7.693-7.219-7.218-7.697 3.418a7.999 7.999 0 0 1-7.441-.499 58.79 58.79 0 0 0-17.228-7.144 7.998 7.998 0 0 1-5.613-4.909l-3.021-7.85H339.692l-3.022 7.851a7.997 7.997 0 0 1-5.613 4.908 58.725 58.725 0 0 0-17.227 7.144 8 8 0 0 1-7.441.499l-7.697-3.418-7.219 7.219L294.89 347a8.002 8.002 0 0 1-.499 7.441 58.724 58.724 0 0 0-7.143 17.228 7.998 7.998 0 0 1-4.909 5.614l-7.85 3.021v10.21l7.847 3.021a7.998 7.998 0 0 1 4.909 5.614 58.745 58.745 0 0 0 7.144 17.23 8.001 8.001 0 0 1 .5 7.442l-3.417 7.692 7.219 7.219 7.697-3.418a8 8 0 0 1 7.441.499 58.788 58.788 0 0 0 17.227 7.143 7.998 7.998 0 0 1 5.614 4.909l3.021 7.85h10.21l3.021-7.847a7.996 7.996 0 0 1 5.614-4.908 58.745 58.745 0 0 0 17.23-7.144 7.993 7.993 0 0 1 7.442-.5l7.692 3.416 7.219-7.219-3.418-7.696a8.002 8.002 0 0 1 .499-7.441 58.798 58.798 0 0 0 7.143-17.228 7.997 7.997 0 0 1 4.908-5.613l7.851-3.022v-10.208zm-19.69 5.105c0 27.91-22.707 50.616-50.617 50.616s-50.617-22.706-50.617-50.616 22.707-50.617 50.617-50.617 50.617 22.707 50.617 50.617zm-16 0c0-19.088-15.529-34.617-34.617-34.617s-34.617 15.529-34.617 34.617 15.529 34.616 34.617 34.616 34.617-15.528 34.617-34.616z" fill="#ffffff" opacity="1" data-original="#000000" class=""></path></g></svg>