<svg xmlns="http://www.w3.org/2000/svg" version="1.1" xmlns:xlink="http://www.w3.org/1999/xlink" width="512" height="512" x="0" y="0" viewBox="0 0 512 512" style="enable-background:new 0 0 512 512" xml:space="preserve" class=""><g><path d="m465.442 192.993-31.927-4.8c-4.588-21.045-12.794-40.847-24.454-59.008l19.19-25.98c6.164-8.346 5.314-19.728-2.023-27.065l-19.219-19.219c-7.337-7.336-18.718-8.188-27.065-2.022l-25.98 19.19c-18.16-11.66-37.964-19.867-59.007-24.454l-4.799-31.928C288.616 7.447 279.965 0 269.589 0H242.41c-10.376 0-19.026 7.447-20.567 17.707l-4.8 31.928c-21.044 4.587-40.847 12.794-59.008 24.454l-25.98-19.19c-8.345-6.165-19.727-5.313-27.065 2.022L85.772 76.14c-7.337 7.337-8.188 18.719-2.023 27.065l19.19 25.98c-11.66 18.161-19.867 37.964-24.454 59.008l-31.928 4.8c-10.26 1.541-17.707 10.192-17.707 20.567v27.178c0 10.375 7.447 19.025 17.707 20.568l31.928 4.799c4.587 21.043 12.793 40.846 24.454 59.008l-19.19 25.98c-6.165 8.346-5.314 19.729 2.023 27.065l19.218 19.219c7.338 7.336 18.719 8.187 27.065 2.022l25.982-19.191a181.736 181.736 0 0 0 23.724 12.827 151.41 151.41 0 0 1-3.419 4.978 34.661 34.661 0 0 0-6.521 20.3v9.531c-10.311 3.073-17.853 12.636-17.853 23.932 0 3.77.851 7.342 2.353 10.55-11.237 2.507-19.664 12.551-19.664 24.532v17.626a7.516 7.516 0 0 0 7.515 7.515h223.655a7.516 7.516 0 0 0 7.515-7.515v-17.626c0-11.982-8.428-22.026-19.666-24.533a24.794 24.794 0 0 0 2.354-10.549c0-11.296-7.541-20.859-17.852-23.932v-9.531a34.661 34.661 0 0 0-6.521-20.3 154.624 154.624 0 0 1-3.419-4.979 181.433 181.433 0 0 0 23.724-12.827l25.981 19.191c3.73 2.755 8.066 4.11 12.377 4.109 5.334 0 10.63-2.074 14.688-6.132l19.219-19.218c7.337-7.336 8.187-18.718 2.023-27.065l-19.19-25.98c11.66-18.161 19.866-37.963 24.454-59.008l31.928-4.799c10.26-1.543 17.707-10.193 17.707-20.568V213.56c0-10.376-7.447-19.026-17.707-20.567zM360.313 486.859v10.112H151.687v-10.112c0-5.575 4.536-10.111 10.111-10.111H350.2c5.576 0 10.113 4.536 10.113 10.111zm-17.312-35.082c0 5.482-4.46 9.942-9.941 9.942H178.94c-5.482 0-9.942-4.46-9.942-9.942s4.46-9.942 9.942-9.942h34.933a7.516 7.516 0 0 0 0-15.03h-27.022v-8.492c0-4.167 1.283-8.16 3.709-11.547 20.225-28.235 30.916-61.518 30.916-96.25v-9.37h69.046v9.37c0 34.732 10.691 68.015 30.916 96.25a19.716 19.716 0 0 1 3.709 11.547v8.492H243.93a7.516 7.516 0 0 0 0 15.03h89.128c5.483 0 9.943 4.46 9.943 9.942zm-87.004-229.64h-59.439c-5.352 0-9.706-4.354-9.706-9.706V169.22c0-.095.078-.173.174-.173h19.249c.096 0 .174.078.174.173v16.678c0 7.942 6.461 14.403 14.403 14.403h9.938c7.942 0 14.403-6.461 14.403-14.403V169.22c0-.095.078-.173.174-.173h21.268c.096 0 .174.078.174.173v16.678c0 7.942 6.461 14.403 14.403 14.403h9.938c7.942 0 14.403-6.461 14.403-14.403V169.22c0-.095.078-.173.174-.173h19.249c.095 0 .173.078.173.173v43.211c0 5.352-4.354 9.706-9.706 9.706h-29.388a7.516 7.516 0 0 0 0 15.03h14.771c5.621 0 10.194 4.573 10.194 10.194s-4.573 10.194-10.194 10.194h-89.652c-5.621 0-10.194-4.573-10.194-10.194s4.573-10.194 10.194-10.194h44.822a7.515 7.515 0 0 0 .001-15.03zm34.526 50.447v13.533h-69.046v-13.533zm177.597-31.845a5.736 5.736 0 0 1-4.912 5.706l-37.129 5.581a7.517 7.517 0 0 0-6.269 6.046c-4.259 22.708-13.048 43.916-26.121 63.035a7.513 7.513 0 0 0 .159 8.706l22.315 30.21a5.734 5.734 0 0 1-.561 7.508l-19.219 19.219a5.735 5.735 0 0 1-7.508.561l-30.21-22.315a7.517 7.517 0 0 0-8.707-.159 166.436 166.436 0 0 1-27.401 15.145 148.97 148.97 0 0 1-10.11-24.352c23.521-10.328 43.667-26.815 58.54-48.031 16.579-23.65 25.342-51.469 25.342-80.45 0-77.377-62.951-140.328-140.328-140.328-14.564 0-28.922 2.223-42.673 6.608a7.515 7.515 0 0 0 4.565 14.319c12.273-3.913 25.094-5.898 38.107-5.898 69.09 0 125.299 56.209 125.299 125.299 0 25.878-7.822 50.714-22.619 71.823-12.815 18.281-30.005 32.634-50.055 41.905a150.97 150.97 0 0 1-3.072-30.361v-9.37h5.543a7.516 7.516 0 0 0 0-15.03h-5.543v-13.983c11.656-2.22 20.497-12.48 20.497-24.773a25.05 25.05 0 0 0-2.776-11.472c9.811-3.284 16.905-12.555 16.905-23.458v-43.21c0-8.383-6.82-15.203-15.203-15.203h-19.249c-8.383 0-15.203 6.82-15.203 15.203v16.051h-8.686V169.22c0-8.383-6.82-15.203-15.203-15.203h-21.268c-8.383 0-15.203 6.82-15.203 15.203v16.051h-8.686V169.22c0-8.383-6.82-15.203-15.203-15.203h-19.249c-8.383 0-15.203 6.82-15.203 15.203v43.211c0 10.902 7.093 20.174 16.904 23.458a25.05 25.05 0 0 0-2.775 11.472c0 12.293 8.841 22.553 20.497 24.773v13.983h-5.543a7.516 7.516 0 0 0 0 15.03h5.543v9.37c0 10.299-1.041 20.456-3.072 30.361-20.05-9.272-37.24-23.625-50.055-41.905-14.798-21.109-22.619-45.945-22.619-71.823 0-22.122 5.84-43.863 16.891-62.872a126.094 126.094 0 0 1 44.45-44.897 7.514 7.514 0 1 0-7.683-12.917 141.155 141.155 0 0 0-49.76 50.261c-12.382 21.301-18.927 45.654-18.927 70.426 0 28.981 8.763 56.8 25.342 80.45 14.873 21.216 35.019 37.703 58.54 48.031a148.97 148.97 0 0 1-10.11 24.352 166.478 166.478 0 0 1-27.402-15.145 7.515 7.515 0 0 0-8.706.159l-30.211 22.315a5.733 5.733 0 0 1-7.507-.561l-19.218-19.219a5.734 5.734 0 0 1-.561-7.507l22.315-30.21a7.515 7.515 0 0 0 .158-8.707c-13.074-19.121-21.863-40.329-26.121-63.035a7.517 7.517 0 0 0-6.269-6.046l-37.129-5.581a5.736 5.736 0 0 1-4.912-5.706V213.56a5.735 5.735 0 0 1 4.912-5.705l37.13-5.582a7.514 7.514 0 0 0 6.269-6.046c4.259-22.707 13.047-43.915 26.121-63.035a7.517 7.517 0 0 0-.158-8.707l-22.319-30.21a5.735 5.735 0 0 1 .561-7.508l19.218-19.218a5.734 5.734 0 0 1 7.508-.561l30.21 22.315a7.515 7.515 0 0 0 8.706.159c19.12-13.074 40.329-21.863 63.035-26.121a7.515 7.515 0 0 0 6.046-6.269l5.582-37.13a5.735 5.735 0 0 1 5.705-4.912h27.179a5.736 5.736 0 0 1 5.706 4.912l5.581 37.13a7.517 7.517 0 0 0 6.046 6.269c22.708 4.259 43.916 13.047 63.036 26.121a7.515 7.515 0 0 0 8.707-.159l30.21-22.315a5.735 5.735 0 0 1 7.508.561l19.219 19.219a5.735 5.735 0 0 1 .561 7.508l-22.315 30.211a7.517 7.517 0 0 0-.159 8.707c13.073 19.119 21.862 40.327 26.121 63.035a7.517 7.517 0 0 0 6.269 6.046l37.129 5.582a5.735 5.735 0 0 1 4.912 5.705v27.177z" fill="#28aa4a" opacity="1" data-original="#000000"></path></g></svg>