<svg xmlns="http://www.w3.org/2000/svg" version="1.1" xmlns:xlink="http://www.w3.org/1999/xlink" width="512" height="512" x="0" y="0" viewBox="0 0 512 512" style="enable-background:new 0 0 512 512" xml:space="preserve" class=""><g><path d="M437 75C388.7 26.6 324.4 0 256 0S123.3 26.6 75 75C26.6 123.3 0 187.6 0 256s26.6 132.7 75 181c48.4 48.3 112.6 75 181 75s132.7-26.6 181-75c48.3-48.3 75-112.6 75-181s-26.6-132.7-75-181zm-22.6 339.4c-87.3 87.3-229.5 87.3-316.8 0-87.3-87.3-87.3-229.5 0-316.8 87.4-87.3 229.5-87.3 316.8 0 87.3 87.4 87.3 229.5 0 316.8zm-54-246.8v112.5c0 8.8-7.2 16-16 16s-16-7.2-16-16v-73.9L178.9 355.7c-3.1 3.1-7.2 4.7-11.3 4.7s-8.2-1.6-11.3-4.7c-6.2-6.2-6.2-16.4 0-22.6l149.5-149.5h-73.9c-8.8 0-16-7.2-16-16s7.2-16 16-16h112.5c8.8 0 16 7.2 16 16z" fill="#ffffff" opacity="1" data-original="#000000" class=""></path></g></svg>