<svg xmlns="http://www.w3.org/2000/svg" version="1.1" xmlns:xlink="http://www.w3.org/1999/xlink" width="512" height="512" x="0" y="0" viewBox="0 0 100 100" style="enable-background:new 0 0 512 512" xml:space="preserve" class=""><g><path d="M54.229 51.751H45.77c-4.962 0-9 4.037-9 9v4.148a1 1 0 0 0 1 1H62.23a1 1 0 0 0 1-1v-4.148c0-4.963-4.038-9-9-9zm7 12.148H38.77v-3.148c0-3.86 3.14-7 7-7h8.458c3.859 0 7 3.14 7 7zM50 50.328c3.979 0 7.215-3.237 7.215-7.215v-1.999c0-3.978-3.236-7.215-7.215-7.215-3.978 0-7.214 3.237-7.214 7.215v2c0 3.977 3.236 7.214 7.214 7.214zm-5.214-9.214c0-2.875 2.339-5.215 5.214-5.215s5.215 2.34 5.215 5.215v2c0 2.874-2.34 5.214-5.215 5.214s-5.214-2.34-5.214-5.215zM31.275 59.656l-8.626 4.98a6.237 6.237 0 0 0-3.245-2.108 6.242 6.242 0 0 0-4.774.63c-1.455.84-2.496 2.196-2.93 3.819s-.213 3.318.627 4.773a6.296 6.296 0 0 0 8.593 2.303 6.251 6.251 0 0 0 2.932-3.82 6.24 6.24 0 0 0-.203-3.865l8.626-4.98a1 1 0 0 0-1-1.732zM21.92 69.715a4.263 4.263 0 0 1-2 2.605 4.294 4.294 0 0 1-5.86-1.57 4.26 4.26 0 0 1-.43-3.256 4.264 4.264 0 0 1 2-2.604 4.254 4.254 0 0 1 3.256-.43 4.263 4.263 0 0 1 2.605 1.999 4.26 4.26 0 0 1 .429 3.256zM51 81.006V70.9a1 1 0 1 0-2 0v10.106c-2.994.482-5.291 3.076-5.291 6.204 0 3.469 2.822 6.291 6.291 6.291s6.291-2.822 6.291-6.291c0-3.128-2.297-5.722-5.291-6.204zm-1 10.495a4.296 4.296 0 0 1-4.291-4.291c0-2.308 1.835-4.182 4.12-4.274.058.01.11.035.171.035s.113-.024.17-.035c2.286.092 4.121 1.966 4.121 4.274A4.296 4.296 0 0 1 50 91.501zM49 18.994v9.7a1 1 0 0 0 2 0v-9.7c2.994-.482 5.291-3.076 5.291-6.204A6.298 6.298 0 0 0 50 6.499a6.298 6.298 0 0 0-6.292 6.291c0 3.128 2.297 5.722 5.292 6.204zm1-10.495c2.366 0 4.291 1.925 4.291 4.291S52.366 17.081 50 17.081c-2.367 0-4.292-1.925-4.292-4.291S47.633 8.499 50 8.499zM14.63 36.843c.988.57 2.068.842 3.135.842a6.305 6.305 0 0 0 4.954-2.402l14.315 7.947a1 1 0 0 0 .97-1.749l-14.317-7.949c1.017-2.81-.089-6.04-2.766-7.586a6.248 6.248 0 0 0-4.774-.628c-1.623.435-2.98 1.476-3.82 2.932s-1.063 3.15-.628 4.773a6.25 6.25 0 0 0 2.93 3.82zm-.57-7.593a4.293 4.293 0 0 1 5.86-1.571 4.296 4.296 0 0 1 1.572 5.862 4.298 4.298 0 0 1-5.862 1.57 4.262 4.262 0 0 1-2-2.605 4.264 4.264 0 0 1 .43-3.256zM88.3 66.977a6.25 6.25 0 0 0-2.93-3.82 6.248 6.248 0 0 0-4.773-.629 6.239 6.239 0 0 0-3.246 2.108l-8.622-4.978a1 1 0 1 0-1 1.733l8.623 4.978c-1.08 2.833.019 6.12 2.727 7.684a6.296 6.296 0 0 0 8.594-2.303 6.248 6.248 0 0 0 .628-4.773zm-2.36 3.773a4.294 4.294 0 0 1-5.86 1.57 4.295 4.295 0 0 1-1.571-5.861 4.265 4.265 0 0 1 2.604-1.999 4.268 4.268 0 0 1 3.257.43 4.295 4.295 0 0 1 1.57 5.86zM62.648 43.378a.992.992 0 0 0 .489-.128l14.166-7.947a6.239 6.239 0 0 0 3.293 2.169 6.259 6.259 0 0 0 4.774-.628 6.298 6.298 0 0 0 2.303-8.594 6.251 6.251 0 0 0-3.82-2.932 6.24 6.24 0 0 0-4.774.628 6.253 6.253 0 0 0-2.932 3.82 6.242 6.242 0 0 0 .175 3.794l-14.164 7.946a1 1 0 0 0 .49 1.872zM78.08 30.284a4.264 4.264 0 0 1 2-2.605 4.263 4.263 0 0 1 3.256-.429 4.263 4.263 0 0 1 2.605 2 4.296 4.296 0 0 1-1.57 5.86 4.26 4.26 0 0 1-3.256.43c-1.107-.297-2.032-1.007-2.605-2s-.727-2.148-.43-3.256z" fill="#28aa4a" opacity="1" data-original="#000000" class=""></path></g></svg>