<svg xmlns="http://www.w3.org/2000/svg" version="1.1" xmlns:xlink="http://www.w3.org/1999/xlink" width="512" height="512" x="0" y="0" viewBox="0 0 512 512" style="enable-background:new 0 0 512 512" xml:space="preserve" class=""><circle r="256" cx="256" cy="256" fill="#ffffff" shape="circle"></circle><g transform="matrix(0.7,0,0,0.7,76.79999771118165,76.79999170303347)"><path d="M77.728 364.935v-31.3c0-12.944 9.939-23.475 22.156-23.475h150.625v-44.487a7 7 0 1 1 14 0v44.484h150.624c12.217 0 22.157 10.531 22.157 23.475v31.3a7 7 0 0 1-14 0v-31.3c0-5.136-3.735-9.475-8.157-9.475H264.509v40.778a7 7 0 1 1-14 0v-40.778H99.884c-4.421 0-8.156 4.339-8.156 9.475v31.3a7 7 0 0 1-14 0zm402.6 82.341a54.556 54.556 0 1 1-54.556-54.556 54.618 54.618 0 0 1 54.559 54.556zm-14 0a40.556 40.556 0 1 0-40.556 40.556 40.6 40.6 0 0 0 40.559-40.556zM137.786 406.52V496a7 7 0 0 1-7 7H38.669a7 7 0 0 1-7-7v-89.48a7 7 0 0 1 7-7h92.117a7 7 0 0 1 7 7zm-14 7H45.669V489h78.117zm186.781-7V496a7 7 0 0 1-7 7H211.45a7 7 0 0 1-7-7v-89.48a7 7 0 0 1 7-7h92.117a7 7 0 0 1 7 7zm-14 7H218.45V489h78.117zm-158.5-277.552v-17.121a13.292 13.292 0 0 1 9.289-12.707l9.889-3.149a101.09 101.09 0 0 1 11.825-28.517l-4.77-9.152a13.285 13.285 0 0 1 2.4-15.592l12.106-12.1a13.287 13.287 0 0 1 15.554-2.417l9.226 4.769a101.03 101.03 0 0 1 28.524-11.819l3.1-9.833A13.286 13.286 0 0 1 247.926 9h17.121a13.289 13.289 0 0 1 12.707 9.291l3.148 9.885a101.038 101.038 0 0 1 28.518 11.831l9.152-4.769a13.287 13.287 0 0 1 15.592 2.4l12.106 12.104a13.29 13.29 0 0 1 2.417 15.558l-4.771 9.228a101.053 101.053 0 0 1 11.813 28.522l9.835 3.1a13.282 13.282 0 0 1 9.33 12.72v17.12a13.289 13.289 0 0 1-9.29 12.707l-9.888 3.149a101.032 101.032 0 0 1-11.829 28.517l4.769 9.152a13.285 13.285 0 0 1-2.4 15.592l-12.107 12.106a13.289 13.289 0 0 1-15.553 2.417l-9.226-4.769a101.057 101.057 0 0 1-28.525 11.813l-3.1 9.833a13.283 13.283 0 0 1-12.72 9.331h-17.12a13.291 13.291 0 0 1-12.707-9.29l-3.149-9.888a101.051 101.051 0 0 1-28.517-11.83l-9.151 4.769a13.282 13.282 0 0 1-15.593-2.4l-12.106-12.106a13.29 13.29 0 0 1-2.417-15.553l4.77-9.225a101.024 101.024 0 0 1-11.814-28.526l-9.833-3.1a13.285 13.285 0 0 1-9.325-12.721zm14-.487 13.219 4.162a7 7 0 0 1 4.759 5.294 87.3 87.3 0 0 0 12.9 31.148 7 7 0 0 1 .384 7.083l-6.391 12.364 11.419 11.419 12.3-6.408a7 7 0 0 1 7.108.376 87.294 87.294 0 0 0 31.138 12.92 7 7 0 0 1 5.281 4.737l4.221 13.255h16.148l4.163-13.219a7 7 0 0 1 5.284-4.759 87.315 87.315 0 0 0 31.148-12.9 7 7 0 0 1 7.084-.385l12.364 6.391 11.419-11.418-6.409-12.3a7 7 0 0 1 .378-7.107A87.311 87.311 0 0 0 342.9 145a7 7 0 0 1 4.737-5.282l13.255-4.221V119.35l-13.22-4.163a7 7 0 0 1-4.759-5.294 87.309 87.309 0 0 0-12.9-31.145 7 7 0 0 1-.385-7.084l6.399-12.364-11.419-11.421-12.3 6.409a7 7 0 0 1-7.107-.378 87.3 87.3 0 0 0-31.138-12.92 7 7 0 0 1-5.282-4.737L264.562 23h-16.149l-4.162 13.218a7 7 0 0 1-5.294 4.759 87.294 87.294 0 0 0-31.147 12.9 7 7 0 0 1-7.084.385l-12.364-6.392-11.419 11.415 6.408 12.3a7 7 0 0 1-.377 7.107 87.31 87.31 0 0 0-12.919 31.138 7 7 0 0 1-4.737 5.282l-13.255 4.22zm40.11-8.066a64.306 64.306 0 1 1 64.306 64.306 64.379 64.379 0 0 1-64.31-64.306zm14 0a50.306 50.306 0 1 0 50.302-50.305 50.363 50.363 0 0 0-50.306 50.305z" fill="#38aaeb" opacity="1" data-original="#000000" class=""></path></g></svg>